<svg version="1.1" id="Calque_1" xmlns="http://www.w3.org/2000/svg" xmlns:xlink="http://www.w3.org/1999/xlink" x="0px" y="0px"
	 width="368.64px" height="376.08px" viewBox="0 0 368.64 376.08" enable-background="new 0 0 368.64 376.08" xml:space="preserve">
<g>
	<path fill-rule="evenodd" clip-rule="evenodd" d="M122.75,135.736c-0.205,11.623,0.246,22.956-0.041,34.275
		c-0.257,0.034-0.514,0.068-0.771,0.103c-0.173-0.616-0.51-1.236-0.495-1.846c0.138-5.618,0.5-11.236,0.471-16.851
		c-0.028-5.221-0.456-10.441-0.719-15.883c-1.408-0.158-2.566-0.334-3.732-0.41c-1.931-0.125-3.865-0.178-5.798-0.278
		c-1.177-0.061-2.172-0.419-2.617-1.978c0.614-0.716,1.282-1.574,2.032-2.356c4.131-4.318,8.246-8.653,12.437-12.912
		c3.549-3.607,7.213-7.102,10.793-10.68c1.691-1.69,3.335-3.429,4.938-5.201c0.705-0.778,1.393-0.851,2.428-0.746
		c3.845,0.389,7.711,0.57,11.568,0.841c2.021,0.142,4.039,0.373,6.062,0.452c5.615,0.219,11.235,0.318,16.849,0.577
		c6.536,0.301,13.065,0.819,19.604,1.065c8.096,0.306,16.205,0.319,24.3,0.657c12.813,0.536,25.598,0,38.382-0.739
		c3.293-0.191,6.578-0.524,9.953-0.8c1.274,3.87,4.126,6.574,6.312,9.718c1.994,2.87,4.099,5.665,6.22,8.444
		c1.436,1.881,2.984,3.676,4.642,5.704c-2.495,1.221-2.543,3.143-2.367,5.256c0.556,6.699,1.017,13.406,1.534,20.108
		c0.085,1.089,0.279,2.169,0.445,3.435c2.448,0.042,4.819,0.404,6.404-2.504c0.272,0.712,0.595,1.156,0.575,1.585
		c-0.045,1.008-0.229,2.012-0.398,3.01c-1.699,10.079-3.44,20.152-5.091,30.239c-0.475,2.905-0.689,5.85-1.025,8.778
		c-0.088,0.765-0.279,1.438-1.47,1.477c-0.117-0.818-0.226-1.577-0.327-2.294c-0.148-0.158-0.252-0.377-0.398-0.41
		c-4.284-0.949-8.599-0.919-12.756,0.385c-1.353,0.422-2.515,1.838-3.483,3.028c-2.555,3.137-4.903,6.44-7.456,9.578
		c-0.639,0.786-1.68,1.55-2.639,1.714c-5.074,0.874-10.183,1.541-15.274,2.305c-3.27,0.49-6.532,1.022-9.796,1.543
		c-2.357,0.376-4.733,0.668-7.063,1.171c-3.771,0.815-7.502,1.813-11.267,2.658c-2.962,0.664-5.939,1.268-8.928,1.8
		c-5.802,1.036-11.614,2.011-17.427,2.988c-1.633,0.277-3.281,0.444-4.915,0.712c-6.082,0.993-11.993,1.705-18.092,2.559
		c-3.168,0.442-6.555,0.786-9.753,1.031c-2.654,0.206-5.298,0.534-7.947,0.803c-1.727,0.176-2.757,0.18-5.237,0.026
		c-0.341-4.365-0.895-9.946-1.155-14.615c-0.139-2.505,0.357-2.914,2.785-3.07c2.759-0.175,5.518-0.351,8.279-0.488
		c2.343-0.115,2.771,0.394,3,2.842c0.337,3.575,0.796,7.139,1.195,10.706c0.136,1.212,0.92,2.419,2.249,2.3
		c5.222-0.474,10.208-1.543,15.438-1.93c1.795-0.136,3.309-0.379,3.221-2.758c-0.014-0.394,0.724-1.016,1.229-1.183
		c0.764-0.249,1.628-0.193,2.669-0.285c0.908-3.906-0.156-7.742,0.002-11.965c2.903,0,5.726,0,8.736,0
		c0.205,2.216,0.419,4.47,0.62,6.728c0.042,0.457,0.021,0.921,0.057,1.381c0.266,3.401,0.763,3.755,4.107,3.422
		c1.302-0.13,2.088-0.56,2.244-1.906c0.042-0.364,0.175-0.988,0.268-1.345c0.952-3.649,2.485-4.479,6.31-4.219
		c2.999,0.205,5.999,0.386,9.133,0.585c0.063-2.076-0.999-3.438-2.55-4.567c-1.035-0.755-2.054-1.536-3.019-2.376
		c-2.964-2.583-3.904-5.903-3.518-9.724c0.13-1.274,0.103-2.569,0.11-3.854c0.013-1.676-1.583-4.067-3.225-4.384
		c-1.59-0.309-3.27-0.38-4.884-0.242c-1.431,0.123-2.817,0.238-3.969-0.66c-2.021-1.578-4.073-1.269-6.208-0.394
		c-0.639,0.263-1.306,0.862-1.904-0.074c1.679-2.169,4.886-3.308,7.25-2.158c2.498,1.215,4.88,1.516,7.423,0.422
		c1.412-0.608,2.505,0.059,3.537,0.891c0.714,0.577,1.306,1.34,2.088,1.784c0.739,0.421,1.833,0.971,2.465,0.714
		c3.847-1.56,7.249-3.702,8.347-8.125c0.106-0.429,0.068-0.894,0.129-1.829c-0.703,0.667-1.096,1.063-1.512,1.43
		c-1.231,1.083-2.646,1.686-4.302,1.411c-2.235-0.37-3.185-2.291-1.818-4.056c0.791-1.023,2.078-1.727,3.257-2.355
		c0.683-0.364,1.596-0.295,2.659-0.459c0.009-2.562-1.018-4.648-2.542-6.514c-0.984-1.206-1.61-2.438-1.177-4.068
		c1.097,1.46,2.269,2.812,3.19,4.315c0.761,1.24,1.312,2.63,1.801,4.009c0.608,1.714,1.228,3.459,1.52,5.243
		c0.216,1.316,0.004,2.731-0.186,4.078c-0.124,0.881-0.55,1.718-0.963,2.935c3.193-0.837,5.799,0.362,8.479,1.305
		c1.643,0.578,3.358,0.989,5.072,1.317c2.502,0.48,4.403-0.69,5.544-3.03c0.723-1.48,1.652-2.863,2.5-4.282
		c1.414-2.366,3.865-2.974,6.262-3.67c0.79-0.23,1.65-0.329,2.364-0.704c3.325-1.751,4.795-5.622,3.631-9.304
		c-0.228-0.721-0.386-1.464-0.692-2.65c3.002,2.396,2.557,5.908,1.558,9.986c0.537,0.356,1.221,0.661,1.694,1.162
		c0.804,0.846,1.633,1.735,2.158,2.758c0.705,1.368,0.311,2.324-0.893,3.022c-1.17,0.681-2.181,0.301-2.942-0.629
		c-0.635-0.777-1.034-1.745-1.64-2.551c-0.247-0.328-0.764-0.451-1.487-0.298c0.264,0.395,0.494,0.815,0.794,1.18
		c1.511,1.847,2.105,3.861,1.158,6.161c-0.67,1.627-2.124,2.602-3.62,2.45c-1.744-0.176-3.336-1.624-3.568-3.346
		c-0.098-0.725-0.044-1.473-0.018-2.208c0.025-0.718,0.104-1.432,0.167-2.243c-1.324-0.223-1.989,0.493-2.46,1.407
		c-0.335,0.648-0.504,1.381-0.759,2.072c-2.074,5.636-7.044,8.134-12.817,6.413c-1.057-0.315-2.127-0.652-3.108-1.144
		c-3.948-1.984-7.509-0.811-10.984,1.231c-0.397,0.233-0.744,0.561-1.153,0.762c-2.808,1.377-3.783,3.718-3.815,6.723
		c-0.033,2.881,0.913,5.212,3.172,7c0.288,0.23,0.572,0.467,0.876,0.676c2.712,1.862,5.167,4.272,5.684,7.945
		c0.849,0,2.772-0.323,3.488-0.308c3.763,0.076,7.241,0.526,11.004,0.542c1.859,0.775,2.789-0.164,4.339-0.311
		c2.744-0.259,5.326-0.968,8.06-1.317c3.639-0.464,6.757-0.919,10.391-1.424c1.628-0.225,3.264-0.39,5.126-0.61
		c0.041-0.571,0.167-1.272,0.136-1.966c-0.326-7.084-0.629-14.171-1.033-21.25c-0.561-9.848-1.218-19.688-1.797-29.534
		c-0.106-1.834,0.005-3.681-0.055-5.519c-0.047-1.461-0.159-2.924-0.314-4.378c-0.263-2.47-0.491-4.949-0.9-7.396
		c-0.422-2.524-0.566-2.466-3.088-2.224c-2.194,0.21-4.413,0.276-6.618,0.243c-4.777-0.072-9.553-0.364-14.328-0.353
		c-4.787,0.013-9.572,0.307-14.36,0.435c-2.486,0.067-4.979,0.022-7.467,0.063c-6.816,0.112-13.633,0.352-20.446,0.334
		c-6.434-0.017-12.865-0.329-19.299-0.45c-2.947-0.056-5.897,0.106-8.845,0.042c-5.425-0.121-10.848-0.452-16.273-0.478
		c-5.706-0.027-11.415,0.193-17.123,0.328C124.741,135.462,123.932,135.609,122.75,135.736z M113.243,130.473
		c0.483,0.373,0.995-1.469,1.405,1.137c0.571,1.29,1.394,1.924,2.79,1.569c1.323-0.336,2.336-1.003,2.359-2.516
		c-1.315-0.947-2.534-1.827-3.993-2.877c-0.819,0.885-1.67,1.805-2.52,2.725c-0.719,0.696-1.436,1.393-2.595,2.517
		c1.252,0,1.785,0,2.354,0C113.12,132.061,113.181,131.267,113.243,130.473z M159.229,117.217c-2.641,0.832-2.911-0.659-3.996,0.092
		c0.115,0.503,1.094,3.097,1.261,3.608c0.332,1.009,0.864,1.885,2.08,1.868c1.287-0.018,2.393-0.526,2.772-1.84
		c0.421-1.464,0.861-3.001-0.344-4.426L159.229,117.217z M284.176,187.257c0.049,0.347,0.1,0.694,0.148,1.042
		c-0.844,0.095-1.697,0.328-2.526,0.261c-3.778-0.304-7.224,1.203-10.819,1.879c-1.146,0.216-1.495,0.935-1.416,1.992
		c0.088,1.127,0.746,1.62,1.825,1.643c0.368,0.007,0.737,0.006,1.106-0.006c3.024-0.076,6.05-0.148,9.076-0.24
		c0.898-0.025,1.794-0.104,2.838-0.167c0.452-3.297,0.885-6.45,1.31-9.54c-1.958-0.855-2.97-1.018-4.433-0.748
		c-2.528,0.47-5.052,0.98-7.589,1.409c-1.437,0.242-2.373,0.829-2.515,2.432c-0.04,0.459-0.566,0.876-0.869,1.312
		c-0.203-0.063-0.405-0.125-0.607-0.187c-0.062-1.322-0.123-2.646-0.184-3.953c0.679-0.33,1.161-0.565,1.717-0.835
		c0.091-1.327,0.186-2.682,0.272-3.942c4.323-1.468,11.226-2.345,13.279-1.539c-0.903,0.327-1.843,0.501-2.786,0.652
		c-2.456,0.394-4.924,0.727-7.366,1.184c-1.274,0.239-1.923,1.252-1.714,2.405c0.222,1.223,1.184,1.259,2.13,1.22
		c0.642-0.025,1.283-0.116,1.918-0.225c2.427-0.42,4.741-1.459,7.307-1.142c0.812,0.1,1.741-0.243,1.882-1.266
		c0.348-2.506,1.125-4.97,0.968-7.757c-2.648,0.185-5.107,0.354-7.566,0.527c-3.767,0.266-3.767,0.267-5.289,3.288
		c-1.036-0.477-1.015-1.34-1.002-2.277c0.03-2.046,2.104-1.398,2.99-2.267c0-1.402,0-2.744,0-4.115
		c0.536-0.206,0.952-0.392,1.385-0.525c2.636-0.816,2.638-0.812,2.619-3.594c-0.003-0.459-0.117-0.955,0.02-1.369
		c0.125-0.386,0.47-0.917,0.799-0.986c2.453-0.506,4.886-1.419,8.05-0.667c-2.419,1.769-5.193,0.353-7.229,2.12
		c-0.097,1.083-0.208,2.312-0.337,3.74c1.988-0.329,3.627-0.549,5.24-0.885c1.009-0.211,1.913-0.638,2.124-1.862
		c0.403-2.33,0.855-4.652,1.278-6.923c-1.996-1.048-3.495-0.09-5.109,0.232c-0.059,0.452-0.063,0.82-0.16,1.163
		c-0.107,0.383-0.299,0.743-0.549,1.343c-1.38-1.156-1.359-2.372-1.184-3.665c0.134-0.993,0.32-2.004,0.259-2.994
		c-0.231-3.769-0.57-7.532-0.837-11.299c-0.294-4.134-0.339-8.302-0.931-12.392c-0.244-1.679-0.036-2.722,1.558-3.7
		c-5.18-6.097-8.976-12.968-14.379-18.595c-1.286,0.854-1.045,1.593-0.43,2.475c1.053,1.512,2.033,3.075,3.009,4.64
		c0.395,0.637,5.99,8.4,6.331,9.072c-0.159,0.09-0.319,0.181-0.479,0.271c-0.764-1.005-6.791-9.101-7.599-10.07
		c-0.778-0.933-1.637-1.801-2.771-3.037c-3.292,8.577-6.335,16.625-8.23,24.96c-1.312-0.06-2.35-0.106-3.799-0.172
		c0.203,3.109,0.355,5.84,0.567,8.566c0.135,1.729,0.431,3.447,0.52,5.177c0.09,1.742-0.066,3.496,0.03,5.237
		c0.144,2.574,0.498,5.136,0.623,7.71c0.623,12.976,1.188,25.956,1.812,38.933c0.081,1.685,0.395,3.361,0.678,5.672
		c2.312-2.855,4.043-5.352,6.141-7.49c2.187-2.229,2.85-4.633,2.477-7.673c-0.253-2.06,0.293-2.307,2.311-2.605
		c2.271-0.337,4.511-0.894,6.787-1.192C279.281,187.597,281.734,187.47,284.176,187.257z M215.723,216.1
		c-1.027-0.674-1.486-1.115-2.032-1.313c-3.58-1.302-7.347-1.422-11.092-1.608c-4.061-0.2-6.234,2.55-4.767,6.712
		C203.515,218.826,209.542,217.854,215.723,216.1z M230.894,131.352c-1.022,0.77-1.865,1.404-3.18,2.393
		c3.964,0.825,7.238,0.556,10.496,0.531c3.213-0.026,6.427-0.162,9.637-0.098c4.296,0.085,8.353-0.297,9.464-1.096
		c-1.168-0.554-2.303-1.093-3.509-1.665c-1.912,1.331-3.85,1.648-5.641-0.12c-2.688,2.328-5.379,2.387-7.957,0.503
		C236.861,133.229,233.804,133.305,230.894,131.352z M287.547,171.663c0.293-1.646,0.523-2.942,0.791-4.447
		c-2.781,0.412-5.193,0.804-7.613,1.117c-2.846,0.368-3.278,1.064-2.257,4.294C281.373,172.319,284.342,172.003,287.547,171.663z
		 M180.317,120.11c-0.178,2.854,0.407,4.016,2.305,4.583c1.976,0.59,4.395-0.312,5.298-1.974c0.941-1.735,0.474-3.545-1.282-4.962
		C184.684,119.796,184.684,119.796,180.317,120.11z M149.258,123.741c0.029,0.651,0.061,1.377,0.096,2.104
		c0.009,0.184,0.01,0.37,0.042,0.55c0.288,1.657,1.042,2.432,2.438,2.517c1.439,0.086,3.412-0.884,3.572-2.078
		c0.275-2.043,0.233-4.128-0.958-5.975C152.71,121.823,151.13,122.7,149.258,123.741z M126.056,122.972
		c-0.185,2.955,0.391,5.213,1.596,5.445c1.16,0.224,2.648,0.187,3.623-0.376c1.973-1.142,1.794-3.153,1.181-5.274
		c-0.689-0.328-1.489-0.706-2.202-1.045c-0.725,0.422-1.254,0.788-1.83,1.051C127.765,123.074,126.851,122.68,126.056,122.972z
		 M227.392,115.839c0.242,1.092,0.44,2.171,0.737,3.222c0.144,0.506,0.373,1.062,0.736,1.418c1.267,1.243,2.963,0.617,3.933-0.584
		c1.431-1.775,1.825-2.892,0.238-4.201c-0.767-0.634-1.52-1.289-2.365-2.007C229.589,114.396,228.527,115.094,227.392,115.839z
		 M237.289,121.802c0.191,0.734,0.358,1.644,0.668,2.502c0.532,1.477,1.39,1.925,3.024,1.741c1.379-0.156,2.155-0.902,2.343-2.284
		c0.216-1.607,0.489-3.207,0.657-4.818c0.026-0.25-0.378-0.546-0.574-0.809C241.375,119.352,239.456,120.502,237.289,121.802z
		 M231.468,128.011c0.38,0.935,0.545,1.665,0.936,2.241c0.957,1.413,4.216,2.18,5.788,1.449c1.362-0.634,1.599-1.566,1.043-3.939
		C236.667,125.24,234.313,127.214,231.468,128.011z M188.166,124.632c0.145,0.763,0.272,1.677,0.502,2.564
		c0.153,0.59,0.329,1.251,0.714,1.69c0.903,1.032,3.675,1.777,4.527,1.209c1.254-0.837,2.183-1.317,1.322-4.243
		c-0.097-0.33-0.226-0.65-0.25-0.722C192.506,124.949,190.273,124.786,188.166,124.632z M214.112,113.595
		c-0.718,0.657-1.454,1.208-2.038,1.89c-1.176,1.376-0.804,3.555,0.761,4.923c1.087,0.95,2.809,0.882,3.725-0.147
		c1.472-1.652,1.357-3.236-0.335-4.747C215.552,114.913,214.889,114.3,214.112,113.595z M219.339,116.232
		c0.465,4.286,1.939,4.802,3.633,4.676c1.774-0.132,2.979-2.359,2.803-4.936c-0.895-0.575-1.808-1.161-2.716-1.745
		C221.848,114.88,220.656,115.522,219.339,116.232z M122.304,120.968c-0.792,0.866-1.606,1.721-2.375,2.613
		c-0.539,0.623-1.055,1.272-1.509,1.957c-0.753,1.136-0.166,2.828,1.04,3.114c1.757,0.419,3.538-0.456,4.354-2.136
		C124.799,124.484,124.375,122.838,122.304,120.968z M164.87,111.861c-0.899,0.511-1.759,1-2.578,1.465
		c0.263,2.25,0.819,3.754,1.688,4.65c1.502,1.549,3.38,1.253,4.104-0.753c0.357-0.992,0.373-2.108,0.528-3.077
		C167.288,113.336,166.205,112.676,164.87,111.861z M245.144,120.499c0,1.021-0.081,1.918,0.017,2.795
		c0.197,1.747,1.879,2.882,3.819,2.667c2.135-0.237,2.762-1.067,2.448-3.305c-0.099-0.703-0.283-1.394-0.441-2.158
		C249.121,120.499,247.401,120.499,245.144,120.499z M244.483,132.037c1.893,0.038,3.17-1.255,3.238-3.278
		c0.045-1.294-1.795-2.785-3.422-2.771c-0.959,0.007-2.953,1.59-3.01,2.389C241.15,130.359,242.581,131.999,244.483,132.037z
		 M133.849,109.461c-0.808,0.69-1.649,1.389-2.467,2.112c-0.667,0.592-1.782,1.187-1.205,2.176c0.441,0.755,1.438,1.379,2.312,1.634
		c0.921,0.269,2.07,0.255,2.973-0.057c0.754-0.261,1.629-1.033,1.85-1.76c0.275-0.903-0.026-1.954-1.181-2.496
		C135.338,110.697,134.671,110.055,133.849,109.461z M171.946,119.882c0,0.626-0.056,1.254,0.01,1.87
		c0.197,1.858,0.814,2.58,2.375,2.883c1.557,0.303,2.829-0.322,3.513-1.961c0.453-1.086,0.751-2.27,0.891-3.437
		c0.054-0.445-0.53-0.966-0.85-1.497C175.485,119.999,175.198,120.101,171.946,119.882z M134.265,123.121
		c-0.453,1.205-0.453,2.437,1.076,4.409c0.845,1.091,1.567,1.582,2.675,1.028c2.488-1.247,2.958-3.857,1.022-5.808
		c-0.373-0.375-0.83-0.667-1.278-1.02C136.681,122.161,135.675,122.561,134.265,123.121z M221.474,122.524
		c0.187,2.632,0.716,3.43,2.482,3.923c1.542,0.431,2.427,0.096,3.29-1.246c1.157-1.798,0.944-3.011-1.033-5.387
		c-0.669,0.604-1.263,1.329-2.021,1.768C223.427,122.026,222.497,122.185,221.474,122.524z M142.126,124.117
		c0.429,1.425,0.654,2.713,1.202,3.847c0.665,1.377,2.167,1.582,3.224,0.654c1.573-1.382,0.839-3.308,1.062-4.97
		c0.081-0.603-0.909-1.349-1.471-2.112c-0.797,0.545-1.313,0.917-1.848,1.259C143.683,123.187,143.053,123.553,142.126,124.117z
		 M205.084,127.297c-0.386,2.502,0.309,3.928,2.216,4.235c1.915,0.309,3.785-1.277,4.099-3.487c0.123-0.858,0.224-1.72,0.312-2.403
		C209.55,126.181,207.485,126.696,205.084,127.297z M180.55,128.538c-0.979,0.577-1.92,1.114-2.842,1.682
		c-0.751,0.462-1.826,0.762-1.517,1.969c0.286,1.116,0.972,1.919,2.19,2.202c2.45,0.568,4.439-0.868,4.984-3.738
		C182.47,129.98,181.536,129.277,180.55,128.538z M139.542,116.721c-0.322,2.273-0.485,4.097,1.264,5.357
		c1.026,0.74,2.169,0.353,3.058-0.353c1.867-1.481,1.604-3.459,1.083-5.809C143.392,117.6,141.65,117.516,139.542,116.721z
		 M228.771,126.229c-2.251,0.774-4.157,1.429-6.064,2.084c0.571,2.232,1.794,3.307,4.028,3.646c1.178,0.179,2.068-0.264,2.465-1.258
		c0.323-0.806,0.39-1.785,0.3-2.659C229.427,127.328,228.953,126.656,228.771,126.229z M128.083,114.644
		c-1.147,1.297-2.232,2.406-3.179,3.624c-1.167,1.505-0.494,3.081,1.378,3.424c1.485,0.272,2.789-0.358,3.424-1.655
		C130.575,118.267,130.154,116.506,128.083,114.644z M172.762,126.086c0.292,1.267-0.141,2.9,1.827,3.407
		c1.938,0.499,3.832-0.11,4.848-1.613c0.827-1.221,0.665-2.057-0.504-3.501C176.824,124.962,174.863,125.505,172.762,126.086z
		 M213.706,127.502c0.113,2.398,0.548,3.074,2.254,3.613c1.2,0.379,2.325,0.427,3.219-0.688c1.104-1.378,1.373-3.476,0.608-4.866
		c-0.898,0.421-1.766,0.937-2.702,1.235C216.062,127.123,214.975,127.248,213.706,127.502z M215.315,110.662
		c0.582,1.298,0.299,1.705,0.984,2.947c0.729,1.318,2.052,1.362,3.375,1.204c1.421-0.17,1.948-1.25,2.299-2.409
		c0.348-1.154,0.199-2.18-1.289-2.679C218.727,111.183,218.147,111.523,215.315,110.662z M213.113,122.809
		c0.189,2.278,0.596,2.834,2.268,3.124c1.6,0.277,3.254-0.553,3.883-1.95c0.646-1.438,0.271-2.613-1.027-3.71
		C216.525,121.12,214.92,121.915,213.113,122.809z M146.84,130.008c-2.96,1.22-4.551-0.35-5.842-2.417
		c-1.77,1.792-1.797,1.91-0.928,3.545c0.954,1.795,2.82,2.857,4.458,2.537C146.034,133.379,146.624,132.563,146.84,130.008z
		 M244.5,115.617c1.076,2.87,2.732,4.071,4.89,3.743c1.446-0.22,1.946-1.066,1.941-3.153c-1.689-0.649-3.343-1.284-5.253-2.017
		c0.024-0.019-0.264,0.192-0.529,0.429C245.215,114.917,244.897,115.235,244.5,115.617z M215.674,212.756
		c1.085,1.741,2.209,2.609,3.463,2.372c2.228-0.421,4.429-0.985,6.632-1.529c0.178-0.044,2.924-0.271,3.294-0.84
		C225.312,211.607,219.192,211.642,215.674,212.756z M166.447,131.42c-0.012,1.587,0.803,2.513,2.376,2.77
		c2.161,0.353,3.854-0.6,5.065-2.863c-0.874-0.739-1.762-1.49-2.408-2.036C169.649,130.066,168.074,130.731,166.447,131.42z
		 M124.825,127.281c-2.583,2.085-3.177,2.992-2.518,4.314c0.743,1.49,2.54,2.172,4.482,1.699c1.358-0.331,1.668-0.868,1.641-2.688
		C127.105,129.751,125.441,129.251,124.825,127.281z M235.854,120.359c-2.336,1.099-4.149,1.951-6.127,2.881
		c0.114,0.448,0.208,1.181,0.486,1.835c0.385,0.906,1.14,1.621,2.144,1.354c1.094-0.292,2.672-0.679,3.009-1.466
		C235.948,123.608,235.734,121.911,235.854,120.359z M203.037,126.286c-2.147-0.097-4-0.18-6.071-0.274
		c0.39,1.222,0.698,2.542,1.234,3.765c0.45,1.028,1.443,1.364,2.538,1.157c1.147-0.217,2.114-0.758,2.276-2.033
		C203.128,128.013,203.037,127.098,203.037,126.286z M207.692,108.98c-1.261,1.649-0.271,3.055,0.239,4.406
		c0.379,1.003,1.3,1.727,2.38,1.398c0.878-0.267,1.784-0.889,2.343-1.612c0.412-0.535,0.284-1.487,0.347-1.91
		C211.103,110.446,209.557,109.781,207.692,108.98z M147.428,118.267c0.089,2.046,0.523,2.948,1.619,3.346
		c1.414,0.512,3.259-0.315,4.447-1.937c0.769-1.047,0.868-1.969-0.178-2.71C151.276,117.417,149.353,117.841,147.428,118.267z
		 M238.394,113.68c-0.63,0.793-1.289,1.542-1.854,2.357c-0.742,1.07-0.449,2.195,0.294,3.054c0.841,0.973,1.992,0.863,3.002,0.169
		c1.038-0.714,2.34-1.333,2.047-2.939c-0.068-0.373-0.51-0.737-0.863-0.985C240.209,114.769,239.346,114.274,238.394,113.68z
		 M249.519,109.029c-1.822,1.871-2.062,2.882-1.123,4.357c0.65,1.026,1.896,1.397,3.134,0.936c1.383-0.515,1.747-1.767,1.194-4.334
		C251.753,109.698,250.72,109.389,249.519,109.029z M197.14,112.869c-0.628,2.075-0.312,4.178,0.598,5.095
		c1.827,1.845,3.701,1.442,4.575-1.021c0.173-0.484,0.116-1.05,0.171-1.651c-0.981-0.189-1.927-0.206-2.716-0.567
		C198.893,114.325,198.161,113.611,197.14,112.869z M186.66,108.19c-1.237,0.357-1.758,1.149-1.848,2.261
		c-0.058,0.713-0.271,1.49-0.073,2.133c0.319,1.035,2.269,1.672,3.336,1.258c1.288-0.5,1.642-1.822,1.135-4.353
		C188.356,109.054,187.468,108.602,186.66,108.19z M200.418,132.737c-1.723-1.084-3.143-1.979-4.706-2.962
		c-0.806,0.649-1.708,1.377-2.538,2.048c0.967,2.591,1.107,2.865,2.409,2.883C197.396,134.731,199.223,134.597,200.418,132.737z
		 M190.415,120.584c0.022,0.334-0.01,0.619,0.064,0.873c0.609,2.082,1.092,2.507,2.698,2.425c1.678-0.086,2.421-0.852,2.754-2.825
		c0.074-0.441,0.111-0.902,0.268-1.314c0.363-0.956-0.119-1.334-0.679-1.491C193.749,119.061,192.183,119.777,190.415,120.584z
		 M151.852,111.435c-1.835,0.672-3.433,1.256-5.199,1.902c0.272,1.38,0.494,2.771,2.069,3.227c1.18,0.342,2.46,0.261,3.231-0.858
		C152.848,114.405,152.797,112.995,151.852,111.435z M157.37,124.456c0.288,1.371-0.076,3.146,1.669,3.705
		c0.793,0.254,2.169-0.042,2.746-0.622c1.428-1.433,0.833-3.155,0.179-4.808C160.361,123.333,158.927,123.871,157.37,124.456z
		 M132.212,116.693c-1.014,2.508-0.356,3.947,0.677,4.556c0.778,0.459,3.09,0.069,3.893-0.655c0.937-0.847,1.461-1.562,1.339-4.393
		C136.865,116.294,133.434,116.603,132.212,116.693z M196.816,110.575c-0.87-0.452-1.612-0.793-2.308-1.211
		c-0.818-0.49-1.413-1.517-2.638-0.771c-1.379,0.84-0.416,1.973-0.455,2.973c-0.016,0.348,0.06,0.838,0.289,1.029
		c0.521,0.438,1.143,0.978,1.763,1.035C195.108,113.784,196.248,112.692,196.816,110.575z M145.016,111.277
		c-1.722,0.457-3.772,0.322-5.687,0.831c-0.118,1.111-0.063,2.51,1.465,3.396c0.933,0.541,1.833,0.709,2.791-0.054
		C145.276,114.101,145.215,112.96,145.016,111.277z M133.69,127.404c-0.634,0.524-2.031,1.539-2.511,2.166
		c-0.313,0.41-0.517,1.212-0.326,1.642c0.679,1.531,2.185,1.897,3.655,1.91c1.426,0.011,2.619-0.594,2.874-2.081
		C135.914,130.011,134.305,129.374,133.69,127.404z M194.493,114.947c-0.799,0-1.443,0.1-2.041-0.028
		c-0.604-0.129-1.157-0.677-1.74-0.69c-0.642-0.014-1.438,0.218-1.889,0.64c-0.346,0.323-0.476,1.174-0.323,1.676
		c0.443,1.461,2.335,2.501,3.709,2.205C193.739,118.419,194.494,117.285,194.493,114.947z M259.46,123.819
		c-1.229,0.966-1.797,1.414-2.365,1.86c-1.502,1.175-2.071,2.585-1.379,4.207c0.27,0.634,1.076,1.157,1.759,1.43
		c0.225,0.09,0.998-0.686,1.222-1.197c0.438-1.003,0.778-2.081,0.946-3.161C259.769,126.146,259.562,125.284,259.46,123.819z
		 M205.807,113.616c-1.342,0.851-2.025,2.042-1.481,3.197c0.938,1.992,2.849,2.267,4.761,2.458c0.701-2.523,0.665-2.522-1.014-3.69
		C207.26,115.017,206.566,114.283,205.807,113.616z M199.274,108.37c-0.94,1.846-0.575,3.323,0.579,4.639
		c0.898,1.024,2.105,1.057,3.264,0.561c1.038-0.443,1.802-1.175,1.57-2.056C202.731,110.378,201.135,109.451,199.274,108.37z
		 M200.749,105.502c1.406,3.321,2.497,4.296,4.086,3.971c1.453-0.297,2.131-1.553,2.061-4.242
		C204.963,105.316,203.033,105.401,200.749,105.502z M185.487,131.189c0.758,2.608,1.368,3.121,3.354,2.971
		c1.806-0.136,2.227-0.55,2.479-2.526c-1.188-0.607-2.404-1.229-3.794-1.941C186.859,130.183,186.144,130.708,185.487,131.189z
		 M253.728,128.286c-0.09-1.001,0.259-2.318-1.286-2.603c-1.145-0.211-2.88,1.496-2.908,2.738c-0.042,1.707,0.745,2.846,1.946,2.82
		C252.843,131.212,253.704,130.1,253.728,128.286z M224.18,111.533c0.738,2.361,1.353,2.943,2.84,2.834
		c1.437-0.104,2.269-0.962,2.671-2.752c-0.841-0.65-1.677-1.296-2.47-1.91C226.163,110.341,225.237,110.897,224.18,111.533z
		 M154.127,103.035c-0.636,2.362-0.425,3.918,0.731,4.389c0.561,0.229,1.464,0.084,2.016-0.233c1.308-0.753,1.41-1.705,0.625-3.95
		C156.403,103.174,155.24,103.103,154.127,103.035z M167.51,103.637c-0.092,2.326,0.709,3.632,2.095,3.795
		c1.373,0.161,2.662-1.098,3.152-3.3C170.987,103.966,169.258,103.802,167.51,103.637z M221.721,105.75
		c-0.159,1.872,0.327,2.953,1.45,3.507c0.625,0.309,1.827,0.455,2.175,0.097c0.615-0.633,1.04-1.7,1.063-2.598
		c0.029-1.098-1.085-0.978-1.882-1C223.648,105.73,222.771,105.75,221.721,105.75z M263.068,104.666
		c-0.353,1.297-0.733,2.512,0.279,3.225c0.606,0.425,1.853,0.439,2.561,0.106c1.246-0.586,1.576-1.843,1.319-3.332
		C265.874,104.666,264.62,104.666,263.068,104.666z M165.029,103.75c-1.579,0-2.977,0-4.364,0c-0.093,2.366,0.614,3.479,2.105,3.54
		C164.243,107.349,165.071,106.179,165.029,103.75z M232.618,109.661c0-1.157,0-2.335,0-3.716c-1.466,0.106-2.679,0.195-3.887,0.283
		C228.959,109.87,229.162,110.045,232.618,109.661z M261.729,104.875c-1.354,0.332-3.374,0.252-4.515,0.531
		c0.067,0.939-0.13,1.83,0.226,2.321c0.473,0.652,1.354,1.285,2.104,1.348C262.469,109.184,261.824,106.189,261.729,104.875z
		 M250.603,105.609c0.259,2.289,1.372,3.337,3.087,3.057c1.036-0.168,1.026-0.967,1.612-1.895c0.888-1.404-0.671-1.65-1.774-1.547
		C252.548,105.317,251.571,105.479,250.603,105.609z M144.528,102.921c-1.56-0.372-2.948-0.783-4.276,0.158
		c0.734,2.736,1.418,3.615,2.604,3.435C144.209,106.309,144.77,105.195,144.528,102.921z M254.086,113.871
		c-1.165,1.316-0.529,2.54,0.185,3.548c0.299,0.425,1.439,0.711,1.899,0.477c1.146-0.584,1.872-1.625,1.706-3.058
		C256.524,114.493,255.311,114.183,254.086,113.871z M215.47,105.886c0.529,2.885,1.395,4.024,2.689,3.795
		c1.249-0.22,1.531-1.329,0.876-3.795C217.942,105.886,216.801,105.886,215.47,105.886z M259.706,111.089
		c-1.344-0.604-2.707-1.216-4.079-1.833c-0.841,2.258-0.502,3.384,1.039,3.839C258.247,113.562,259.256,112.93,259.706,111.089z
		 M186.217,125.615c-1.444,0.24-2.73,0.454-4.022,0.669c0.417,2.138,1.729,3.275,3.242,3.032
		C186.607,129.128,186.879,128.104,186.217,125.615z M175.697,104.255c0.372,2.431,1.407,3.344,3.143,2.965
		c1.724-0.377,1.33-1.589,1.055-2.965C178.529,104.255,177.22,104.255,175.697,104.255z M235.021,106
		c0,1.25-0.195,2.208,0.067,3.019c0.181,0.562,0.985,1.256,1.527,1.27c0.511,0.013,1.327-0.695,1.504-1.247
		c0.286-0.901,0.161-1.932,0.218-3.042C237.188,106,236.31,106,235.021,106z M183.296,109.933c-0.628-0.514-1.22-1.081-1.893-1.527
		c-0.801-0.533-1.374-0.247-1.598,0.679c-0.337,1.388,0.154,3.163,1.041,3.397c1.613,0.426,1.875-0.998,2.445-1.959
		C183.331,110.456,183.296,110.346,183.296,109.933z M213.617,105.755c-1.545,0-2.938,0-4.358,0c0.234,2.088,1.453,3.702,2.62,3.467
		C213.503,108.896,213.587,107.536,213.617,105.755z M194.322,105.379c0.262,2.258,1.178,3.326,2.425,3.08
		c1.193-0.235,1.643-1.132,1.416-3.08C196.969,105.379,195.745,105.379,194.322,105.379z M243.398,177.267
		c-1.602-0.021-1.086,5.581,0.435,5.921C246.653,183.311,245.748,177.633,243.398,177.267z M207.19,178.039
		c2.884,1.104,4.296,0.362,4.686-2.286C209.107,175.09,208.36,175.432,207.19,178.039z M147.055,103.16
		c0.669,2.541,1.042,3.034,2.008,2.975c1.232-0.075,2.022-1.137,2.087-2.975C149.864,103.16,148.587,103.16,147.055,103.16z
		 M216.572,132.994c-1.742-0.862-3.233-1.601-4.746-2.347c-0.815,1.147-0.665,2.012,0.294,2.736
		C213.273,134.255,214.763,134.164,216.572,132.994z M138.654,104.133c-1.039,1.242-2.689,2.749-3.241,3.819
		c-0.267,0.517,0.686,1.065,1.137,1.447c0.655,0.552,2.145,0.91,2.433,0.153C139.457,108.313,139.494,106.132,138.654,104.133z
		 M182.407,104.518c-0.576,1.477-0.449,2.524,0.648,3.154c0.448,0.257,1.303,0.261,1.736-0.004c1.154-0.704,0.939-1.779,0.449-3.003
		C184.322,104.616,183.445,104.571,182.407,104.518z M178.659,221.778c0.008,0.204,0.023,0.927,0.032,1.133
		c3.875-0.465,7.201-1.039,10.743-1.908c-3.472,0.059-6.929,0.246-10.386,0.452C178.913,221.465,178.789,221.667,178.659,221.778z
		 M187.961,104.83c0.176,2.202,0.631,2.864,1.868,2.963c1.298,0.104,1.8-0.488,2.064-2.665
		C190.589,105.029,189.297,104.931,187.961,104.83z M262.415,118.837c0.531-1.556,0.928-2.716,1.374-4.024
		c-1.152-0.341-2.046-0.605-3.126-0.924C260.75,115.738,260.718,117.268,262.415,118.837z M262.231,110.005
		c-0.006,1.286-0.632,2.535,1.095,2.793c1.394,0.208,1.841-0.478,2.053-3.176C264.389,109.742,263.437,109.859,262.231,110.005z
		 M208.569,132.997c-0.86-0.152-1.573-0.17-2.197-0.417c-0.747-0.295-1.386-0.861-2.131-1.163c-0.414-0.169-0.952-0.041-1.434-0.047
		c0.081,0.497-0.001,1.123,0.271,1.469C204.171,134.227,206.531,134.316,208.569,132.997z M140.674,107.734
		c-0.403,1.292,0.583,2.596,1.633,2.804c1.256,0.249,2.092-1.354,2.092-3.201C143.416,107.953,141.679,107.904,140.674,107.734z
		 M250.449,178.507c1.628-0.853-0.206-4.686-2.712-3.952C248.44,175.64,249.442,178.275,250.449,178.507z M159.543,134.299
		c-0.99-0.857-1.626-2.091-2.339-2.708c-0.517,0.706-1.528,1.973-2.081,2.728C156.402,134.318,158.002,134.299,159.543,134.299z
		 M260.125,120.038c0.129,0.885,0.256,1.77,0.384,2.654c0.231-0.023,0.462-0.046,0.692-0.07
		C261.368,121.702,262.253,120.739,260.125,120.038z M165.718,134.329c-1.379-1.78-2.09-0.812-3.407,0
		C163.66,134.329,164.433,134.329,165.718,134.329z M185.003,134.81c-1.224-1.54-1.224-1.54-2.265-0.152
		C183.409,134.703,183.986,134.742,185.003,134.81z M139.564,133.77c-1.133-1.088-1.133-1.088-1.955,0.313
		C138.318,133.969,138.868,133.881,139.564,133.77z M130.545,133.984c0.029-0.159,0.057-0.317,0.086-0.477
		c-0.388-0.108-0.775-0.23-1.17-0.294c-0.028-0.003-0.126,0.432-0.192,0.663C129.696,133.913,130.121,133.948,130.545,133.984z
		 M120,133.095c-0.008,0.208-0.018,0.416-0.027,0.623c0.555,0.037,1.109,0.074,1.663,0.111c0.007-0.218,0.013-0.437,0.019-0.655
		C120.139,128.596,122.291,133.205,120,133.095z M175.303,133.833c-0.526-0.337-0.811-0.664-1.028-0.624
		c-0.283,0.052-0.51,0.396-0.763,0.614c0.232,0.184,0.453,0.495,0.698,0.515C174.471,134.358,174.753,134.103,175.303,133.833z
		 M148.847,133.904c0.083-0.204,0.166-0.408,0.248-0.611c-0.441-0.115-0.881-0.242-1.33-0.326c-0.036-0.006-0.128,0.286-0.194,0.439
		C147.997,133.573,148.421,133.738,148.847,133.904z M235.448,211.577c0.018,0.214,0.118,0.524,0.136,0.738
		c0.401-0.095,2.868-0.417,3.269-0.512c-0.022-0.14-0.033-0.714-0.057-0.854C238.398,210.973,235.846,211.557,235.448,211.577z"/>
	<path fill-rule="evenodd" clip-rule="evenodd" d="M145.499,173.795c-0.004-0.618-0.424-7.286-0.288-8.109
		c3.184,0,6.55-0.054,9.995-0.054c0.208,4.398,0.962,8.789,0.7,13.535c-3.354,0.154-6.439,0.305-9.528,0.427l-0.557,0.038
		l-0.178-2.557c0,0-2.787,0.724-4.973,0.861c-2.186,0.138-6.215,0.419-11.172-0.285c-3.179-0.446-4.174-0.809-6.298-1.378
		c-7.437-1.994-13.83-5.917-19.839-10.583c-1.591-1.235-3.199-2.516-4.975-3.433c-4.265-2.2-9.806,1.517-9.891,6.816
		c0.869,0.24,1.802,0.543,2.756,0.752c2.829,0.621,5.645,3.727,5.901,6.557c0.206,2.253-1.498,4.707-3.657,5.267
		c-1.414,0.367-3.782-0.865-4.681-2.777c-0.893-1.902-1.48-3.953-2.156-5.953c-0.228-0.675-0.315-1.395-0.446-1.996
		c-0.355-0.124-0.56-0.277-0.69-0.229c-3.271,1.199-6.576,2.345-9.24,4.721c-1.139,1.017-1.843,2.274-1.858,4.156
		c0.902,0.057,1.777,0.078,2.642,0.177c2.471,0.281,4.683,2.672,4.682,5.025c-0.002,2.171-1.328,4.089-3.234,4.679
		c-1.449,0.448-4.113-0.792-5.158-2.488c-0.481-0.778-0.834-1.641-1.195-2.488c-0.312-0.735-0.552-1.502-0.934-2.559
		c-5.062,2.995-6.908,7.38-6.973,12.797c-1.232-3.245-0.907-6.396,1.135-9.094c1.641-2.166,3.338-4.406,6.118-5.453
		c0.697-0.263,1.304-1.292,1.565-2.095c0.868-2.661,2.64-4.338,5.133-5.45c1.425-0.634,2.737-1.519,4.146-2.194
		c1.23-0.589,2.525-1.042,4.148-1.699c0.182-0.812,0.433-1.936,0.649-2.9c-0.327-0.335-0.439-0.557-0.582-0.578
		c-6.27-0.966-8.978-5.526-10.94-10.831c-0.19-0.514-0.248-1.077-0.383-1.614c-0.627-2.49-1.53-3.032-3.924-1.977
		c-1.322,0.583-2.434,1.628-3.687,2.386c-1.248,0.753-2.483,1.725-3.852,2.034c-2.566,0.58-5.514-1.139-6.439-3.682
		c-0.983-2.7-1.574-5.482-0.212-8.319c0.514-1.068,0.655-2.309,1.104-3.416c0.617-1.524,1.32-3.017,2.065-4.483
		c0.79-1.554,1.891-2.982,2.466-4.604c1.085-3.056,0.933-3.577-0.574-8.251c1.803,1.425,2.839,4.056,2.453,6.375
		c-0.366,2.203-1.066,4.271-2.362,6.141c-0.826,1.191-1.452,2.52-2.458,4.304c1.464-0.117,2.412-0.205,3.362-0.266
		c1.709-0.109,3.111,0.462,3.923,2.026c0.696,1.344,0.244,3.542-0.841,4.637c-1.194,1.207-3.406,1.68-4.843,0.86
		c-1.009-0.576-1.875-1.401-2.977-2.246c-0.95,2.697-0.73,5.201,0.613,7.495c1.294,2.212,3.768,2.719,6.031,1.435
		c0.793-0.451,1.453-1.136,2.231-1.622c1.479-0.925,2.915-2.006,4.521-2.621c2.522-0.966,4.531,0.24,4.803,2.865
		c0.36,3.485,2.059,6.259,4.165,8.873c1.266,1.571,2.914,2.488,4.929,2.793c1.349,0.205,2.56-0.003,3.677-0.795
		c0.525-0.372,1.066-0.721,1.62-1.049c4.142-2.454,6.492-2.209,10.32,0.667c3.892,2.925,7.841,5.791,11.926,8.436
		c1.979,1.283,4.285,2.114,6.519,2.946c3.098,1.156,6.455,2.381,9.679,2.845c6.604,0.952,12.953,0.757,19.305-1.638
		c0.823-0.311,1.649-0.618,2.4-1.393c-0.356,0-0.775-0.125-1.058,0.018c-4.633,2.354-9.593,2.375-14.579,1.985
		c-3.023-0.237-6.03-0.678-9.036-1.09c-4.473-0.614-8.448-2.623-12.252-4.853c-4.367-2.56-8.548-5.447-11.884-9.367
		c-2.569-3.019-4.739-6.137-6.054-10.051c-1.727-5.15-3.438-10.277-4.562-15.592c-0.151-0.715-0.265-1.437-0.496-2.703
		c-0.144,9.212,2.979,17.11,6.105,25.448c-1.54-0.546-1.814-1.518-2.11-2.389c-1.393-4.092-2.887-8.157-4.076-12.308
		c-1.781-6.215-1.576-12.566-0.917-18.934c0.656-6.331,1.17-12.69-1.184-18.821c-0.752-1.96-1.758-3.839-2.809-5.662
		c-0.917-1.591-2.039-3.068-3.105-4.57c-1.736-2.444-3.452-2.917-6.189-1.633c-0.995,0.466-1.871,1.181-2.844,1.702
		c-1.554,0.833-2.771,0.601-3.952-0.699c-1.24-1.364-1.787-3.017-1.75-4.823c0.043-2.063,1.064-2.934,3.147-2.999
		c2.551-0.08,4.307,1.43,6.057,2.939c1.49,1.286,1.463,1.317,3.872,1.328c-1.044-2.151-1.977-4.229-3.063-6.225
		c-0.374-0.686-1.094-1.208-1.722-1.725c-1.135-0.935-2.389-1.734-3.471-2.724c-1.735-1.587-2.223-4.142-1.302-6.085
		c0.745-1.569,3.424-3.043,5.327-2.93c1.844,0.11,2.944,0.852,3.411,2.678c0.692,2.709,0.923,5.462-0.439,8.066
		c-0.562,1.075-0.635,2.06-0.077,3.144c0.704,1.369,1.337,2.773,2.092,4.35c0.907-1.636,1.689-2.955,2.383-4.318
		c1.057-2.078,0.95-4.245,0.502-6.476c-0.536-2.664-0.012-3.784,1.879-4.605c1.437-0.624,4.501,0.401,5.711,1.91
		c0.967,1.208,1.098,2.786-0.217,4.313c-1.296,1.505-2.952,2.734-4.57,3.921c-2.044,1.499-3.337,3.415-3.76,5.886
		c-0.118,0.695-0.088,1.492,0.136,2.154c0.525,1.562,0.959,3.242,1.875,4.566c2.385,3.45,4.16,7.148,5.38,11.14
		c0.038,0.121,0.283,0.179,0.358,0.225c1.233-2.73,2.301-5.56,3.748-8.18c1.771-3.207,3.698-6.355,5.841-9.324
		c4.929-6.828,6.538-14.156,3.629-22.174c-0.607-1.673-1.725-3.308-3.004-4.553c-1.799-1.75-3.153-1.297-4.189,0.952
		c-0.501,1.087-0.922,2.238-1.593,3.213c-2.025,2.944-5.183,2.692-6.667-0.51c-0.461-0.993-0.622-2.124-1.065-3.127
		c-1.279-2.898,1.828-5.523,4.683-4.869c1.611,0.369,3.183,0.909,4.784,1.332c0.503,0.134,1.042,0.135,2.07,0.257
		c-2.94-4.039-6.925-5.69-10.65-7.666c-1.65,1.091-3.133,2.167-4.708,3.088c-2.426,1.42-5.458,1.049-6.812-0.72
		c-1.657-2.166-1.443-6.464,0.561-8.167c0.615-0.522,1.678-0.876,2.463-0.771c2.218,0.297,4.27,1.119,5.872,2.813
		c1.336,1.415,2.879,2.491,5.298,2.935c-1.4-3.072-1.415-6.301-4.144-8.451c-1.324-1.042-2.596-2.382-2.099-4.492
		c0.302-1.28,0.752-2.254,2.15-2.541c0.449-0.092,0.874-0.304,1.323-0.397c3.961-0.826,5.974,1.27,4.869,5.122
		c-0.303,1.057-0.822,2.05-1.228,3.079c-0.268,0.683-0.643,1.359-0.74,2.07c-0.361,2.655,2.88,7.868,5.568,9.083
		c0-3.651-0.01-7.303,0.007-10.955c0.003-0.918-0.003-1.853,0.16-2.75c0.376-2.064,1.116-2.892,3.113-2.809
		c1.404,0.058,2.956,0.486,4.134,1.234c1.931,1.227,1.715,4.25-0.31,5.988c-1.041,0.894-2.204,1.699-3.426,2.317
		c-1.325,0.669-1.817,1.676-2.018,3.049c-0.439,3.022,0.366,5.627,2.285,7.977c2.521,3.088,4.675,6.399,5.624,10.345
		c0.875,3.64,0.757,7.31,0.243,10.984c-0.075,0.541-0.146,1.082-0.203,1.625c-0.006,0.074,0.084,0.159,0.271,0.487
		c0.809-0.553,1.629-1.075,2.405-1.656c1.984-1.488,3.812-3.245,5.952-4.452c3.429-1.935,5.269-5.044,6.986-8.318
		c0.685-1.303,1.35-2.636,1.82-4.025c0.366-1.082,0.417-2.27,0.61-3.42c-1.694-0.816-3.006-0.136-4.279,0.225
		c-1.765,0.499-3.582,0.976-4.786-0.77c-1.169-1.694-0.516-3.585,0.311-5.264c0.704-1.431,3.383-1.625,5.181-0.398
		c0.907,0.62,1.69,1.421,2.516,2.154c0.823,0.729,1.63,1.476,2.468,2.237c1.378-0.617,1.296-1.747,1.355-2.833
		c0.08-1.464,0.046-2.959,0.343-4.382c0.497-2.378,1.713-2.962,4.023-2.296c1.822,0.526,3.179,1.479,3.446,3.485
		c0.271,2.042-0.869,3.3-2.517,4.203c-0.969,0.53-1.939,1.104-2.979,1.449c-1.485,0.493-2.124,1.631-2.734,2.906
		c-1.502,3.136-3.061,6.246-4.583,9.372c-0.314,0.645-0.573,1.316-1.076,2.486c1.608-0.607,2.74-1.13,3.924-1.467
		c7.922-2.245,14.012-7.21,19.412-13.143c1.66-1.822,3.221-3.781,3.733-6.35c0.806-4.038-0.404-7.285-3.799-9.599
		c-1.135-0.773-2.448-1.284-3.594-2.044c-1.214-0.805-2.472-1.628-3.448-2.688c-1.574-1.706-1.163-4.126,0.728-5.507
		c0.223-0.163,0.477-0.286,0.697-0.452c1.495-1.125,3.145-1.709,4.899-0.809c1.887,0.969,2.276,2.776,2.149,4.729
		c-0.114,1.732-0.269,3.462-0.42,5.38c0.945,1.111,2.049,2.41,3.652,4.296c0.243-3.254,0.532-5.843,0.598-8.438
		c0.051-2.009-0.157-4.028-0.289-6.04c-0.07-1.051,0.33-1.782,1.275-2.223c0.583-0.272,1.148-0.61,1.76-0.793
		c2.127-0.633,3.869-0.04,4.848,1.586c1.05,1.743,0.75,3.714-0.984,5.204c-0.82,0.705-1.84,1.212-2.832,1.676
		c-1.28,0.6-2.027,1.461-2.169,2.921c-0.226,2.352-0.566,4.692-0.938,7.674c0.905-0.795,1.291-1.128,1.669-1.467
		c2.953-2.637,6.009-5.137,9.73-6.622c1.98-0.79,2.843-0.53,3.893,0.82c1.153,1.48,1.444,3.596,0.68,4.933
		c-0.846,1.477-2.992,2.682-4.661,2.26c-2.108-0.533-4.14-1.374-6.45-2.166c-2.583,1.611-4.146,4.525-5.153,7.341
		c-1.6,4.483-4.711,7.627-7.764,10.933c-0.743,0.806-1.552,1.553-2.76,2.754c3.042-1.014,5.599-1.746,8.039-2.757
		c0.708-0.292,1.235-1.32,1.577-2.125c0.465-1.093,0.666-2.297,0.994-3.45c0.42-1.471,1.364-2.337,2.901-2.602
		c2.737-0.473,5.73,1.533,6.244,4.23c0.278,1.458-0.214,2.694-1.536,3.189c-2.393,0.896-4.74,1.848-7.349,2.222
		c-2.984,0.429-5.89,1.454-8.803,2.311c-0.663,0.195-1.213,0.767-1.785,1.145c0.113,0.309,0.147,0.589,0.232,0.605
		c4.412,0.813,8.609,2.497,13.235,2.537c3.991,0.035,7.105-1.718,10.19-3.676c3.334-2.117,6.488-4.521,9.713-6.809
		c2.252-1.596,4.594-3.086,6.704-4.854c1.388-1.163,2.47-2.702,3.617-4.133c0.747-0.934,0.646-1.906-0.327-2.664
		c-1.524-1.183-3.107-2.29-4.609-3.5c-1.656-1.333-1.812-2.895-0.1-4.078c2.073-1.432,4.385-2.57,7.061-2.733
		c1.841,0.36,0.671,6.277,0.802,9.971c2.853-3.005,3.961-5.924,3.565-9.402c-0.237-2.092-0.706-4.175-0.751-6.269
		c-0.056-2.506,0.333-2.844,2.79-3.162c1.07-0.139,2.236-0.213,3.256,0.063c2.254,0.611,3.312,3.459,1.944,5.343
		c-1.345,1.851-2.806,3.676-4.5,5.194c-1.339,1.199-1.776,2.428-1.59,4.496c2.49-0.898,5.169-0.538,6.863-3.049
		c0.589-0.876,1.617-1.512,2.548-2.091c1.605-1,3.244-0.573,4.321,0.993c0.155,0.227,0.316,0.467,0.398,0.725
		c0.606,1.927,1.689,4.125,0.193,5.783c-1.496,1.66-3.803,0.893-5.756,0.358c-0.874-0.239-1.793-0.64-2.463-1.228
		c-2.325-2.038-4.59-1.118-6.549,0.312c-1.751,1.279-3.177,3.03-4.646,4.665c-1.197,1.333-2.242,2.802-3.339,4.189
		c2.292,0,4.484,0.066,6.668-0.035c0.771-0.035,1.541-0.437,2.282-0.743c1.438-0.595,2.811-1.383,4.288-1.83
		c1.855-0.562,2.699-0.079,3.484,1.711c0.33,0.753,0.571,1.568,0.709,2.38c0.413,2.402-1.086,4.07-3.502,3.58
		c-1.673-0.339-3.394-1.027-4.8-1.989c-4.065-2.786-8.014-2.446-12.198-0.305c-5.251,2.688-10,6.093-14.724,9.58
		c-2.061,1.521-4.396,2.68-6.653,3.916c-0.521,0.285-1.236,0.223-1.865,0.299c-0.978,0.119-1.958,0.222-2.937,0.332
		c-0.06,0.188-0.121,0.378-0.181,0.567c1.557,1.024,3.025,2.234,4.688,3.035c4.051,1.95,7.723,4.68,12.212,5.745
		c3.139,0.745,3.637,0.907,5.925,0.245c-0.305-1.285-0.661-2.585-0.91-3.905c-0.166-0.887-0.383-1.84-0.22-2.697
		c0.366-1.941,1.049-3.843,3.222-4.446c2.432-0.675,4.575,0.162,6.364,1.803c0.993,0.912,1.041,2.17,0.359,3.307
		c-0.799,1.336-1.711,2.608-2.622,3.875c-0.515,0.714-1.125,1.358-1.439,2.531c1.228-0.153,2.474-0.221,3.681-0.474
		c2.437-0.51,4.847-1.143,7.277-1.676c1.079-0.236,2.184-0.361,3.278-0.529c4.703-0.723,5.835,1.692,5.761,5.474
		c-0.043,2.276-1.734,4-3.999,4.093c-2.444,0.102-4.569-0.548-5.933-2.784c-0.096-0.157-0.179-0.324-0.286-0.473
		c-2.503-3.48-4.595-3.944-9.005-1.743c1.317,0.662,2.436,1.209,3.542,1.786c2.102,1.096,4.43,1.83,5.807,4.028
		c0.797,1.274,1.204,2.552,0.449,3.889c-0.788,1.394-2.122,2.075-3.724,1.906c-1.079-0.114-2.244-0.268-3.174-0.77
		c-2.189-1.181-2.752-3.558-1.67-6.26c0.229-0.571,0.571-1.097,0.997-1.898c-2.981-1.165-5.411-3.403-8.87-2.574
		c1.553,1.951,3.036,3.761,4.45,5.623c0.375,0.494,0.661,1.125,0.778,1.733c0.473,2.463-1.472,3.568-3.963,3.676
		c-1.375,0.059-1.624-0.002-2.966-0.254c-3.019-0.567-4-2.188-3.347-5.189c0.275-1.26,0.639-2.502,0.866-3.77
		c0.322-1.797-0.019-2.184-1.595-3.008c-5.536-2.899-11.036-5.871-16.549-8.811c-1.028-0.548-2.064-1.082-3.312-1.426
		c1.116,3.165,1.154,6.689,4.347,8.868c1.054,0.72,1.691,2.151,2.324,3.359c0.625,1.19,0.208,2.37-0.698,3.292
		c-1.54,1.564-5.143,1.722-6.969,0.364c-1.439-1.072-1.628-1.925-0.758-3.557c0.216-0.406,0.466-0.797,0.731-1.173
		c2.172-3.07,2.142-4.199-0.342-7.786c-1.672,1.86-2.671,3.67-2.396,6.129c0.166,1.473-0.353,3.004-1.893,3.703
		c-1.67,0.757-3.089,0.011-4.211-1.204c-0.801-0.867-1.594-1.833-2.055-2.901c-0.875-2.026,0.211-3.692,2.431-3.906
		c0.908-0.087,1.867-0.084,2.751,0.114c1.557,0.349,2.408-0.29,3.078-1.616c1.714-3.391,0.595-5.482-3.209-6.31
		c-4.879-1.06-9.471-0.376-14.037,1.52c-4.079,1.693-8.329,3.011-12.005,5.542c-3.562,2.454-7.153,4.889-10.529,7.587
		c-1.459,1.167-2.41,2.973-3.364,4.784c0.833-0.414,1.707-0.761,2.491-1.254c2.783-1.752,5.812-2.269,9.013-1.821
		c1.472,0.206,2.702-0.193,3.921-0.957c0.843-0.528,1.746-1.015,2.687-1.323c2.146-0.704,3.49-0.105,4.271,1.747
		c0.691,1.638-0.046,3.928-1.567,4.862c-1.715,1.053-4.132,0.807-5.516-0.802c-1.327-1.543-2.905-2.096-5.477-2.018
		c2.503,2.681,2.744,6.229,5.881,8.116c1.307,0.785,2.115,2.514,2.925,3.942c0.287,0.505,0.084,1.472-0.202,2.084
		c-1.035,2.217-5.08,3.595-7.188,2.425c-0.544-0.302-0.979-1.067-1.159-1.706c-0.529-1.875,0.333-3.441,1.469-4.828
		c1.013-1.236,1.147-2.386,0.272-3.771c-0.584-0.925-0.827-2.061-1.382-3.008c-1.656-2.821-4.165-3.354-7.038-1.77
		c-6.115,3.37-9.695,8.563-11.325,15.253c-0.676,2.772-1.491,5.509-2.219,8.268c-1.384,5.248-1.315,10.529-0.801,15.914
		c0.647,6.772,2.618,13.159,4.9,19.467c2.177,6.014,5.813,11.033,11.207,14.641c2.37,1.584,4.748,3.157,7.148,4.694
		c6.532,4.181,13.19,5.193,21.227,5.589c2.162,0.036,3.899-0.004,5.73-0.18L145.499,173.795z M88.049,170.74
		c-0.115,3.195,0.676,5.999,2.827,8.283c0.769,0.816,1.877,1.589,3.207,0.793c1.105-0.663,1.969-2.527,1.711-3.818
		c-0.088-0.441-0.287-0.869-0.482-1.281C93.922,171.792,91.452,170.768,88.049,170.74z M182.153,80.311
		c0.739-1.149,1.599-2.342,2.285-3.629c0.262-0.49,0.381-1.345,0.126-1.769c-0.828-1.375-2.29-1.805-3.801-1.863
		c-1.466-0.058-2.386,0.808-2.91,2.124c-0.751,1.887-0.272,3.567,0.771,5.136C179.716,80.311,180.702,80.311,182.153,80.311z
		 M85.227,49.96c-2.22-2.105-4.562-2.717-5.749-1.51c-1.333,1.355-1.286,4.982,0.082,6.422c1.146,1.207,3.506,0.927,5.482-0.724
		c-0.454-0.512-1.215-0.121-1.448-1.633C82.966,50.705,84.702,50.782,85.227,49.96z M79.732,79.163
		c0.06-1.303,0.102-2.128,0.132-2.954c0.011-0.275,0.015-0.554-0.015-0.827c-0.213-1.986-0.845-2.801-2.268-2.958
		c-1.663-0.183-4.049,0.963-4.331,2.633c-0.393,2.326,0.183,3.48,3.217,5.05C77.108,78.771,78.105,78.228,79.732,79.163z
		 M193.024,86.078c1.325,2.545,3.316,3.58,5.34,2.691c1.693-0.744,2.297-2.89,1.407-5.004c-0.812-1.923-2.366-2.273-5.204-1.27
		C194.03,83.741,193.543,84.873,193.024,86.078z M176.833,95.244c0.506-0.186,1.716-0.324,2.395-0.999
		c0.392-0.39,0.218-1.854-0.219-2.464c-0.921-1.29-1.288-3.265-3.129-3.592c-1.652-0.292-3.33,1.627-3.625,3.784
		c-0.254,1.855,0.427,2.649,2.637,3.044C175.342,95.099,175.803,95.126,176.833,95.244z M73.63,181.664
		c-0.681,2.189,0.215,3.907,1.784,5.326c0.888,0.804,1.979,1.386,3.261,0.872c1.054-0.425,1.813-2.039,1.703-3.491
		c-0.104-1.375-1.015-2.58-2.453-2.961C76.52,181.037,75.065,180.755,73.63,181.664z M94.067,61.071
		c-0.13-0.033-0.729-0.286-1.338-0.312c-2.296-0.092-3.077,1.285-2.252,4c0.422,1.391,0.829,3.193,2.396,3.354
		c1.833,0.188,2.806-1.378,3.255-2.683C97.617,62.031,96.632,61.539,94.067,61.071z M154.75,63.11
		c1.126-0.443,2.192-0.754,3.139-1.279c0.481-0.268,1.009-0.895,1.061-1.405c0.143-1.404-1.535-3.021-3.194-3.287
		c-1.53-0.245-2.345,0.324-2.986,2.121c-0.182,0.511-0.3,1.045-0.44,1.541C153.11,61.546,153.822,62.225,154.75,63.11z
		 M145.089,37.414c0.253-2.522-0.202-3.719-1.586-4.114c-1.206-0.344-3.763,0.955-4.149,2.106c-0.494,1.476,0.271,2.667,2.482,3.925
		C142.932,38.686,144,38.056,145.089,37.414z M160.934,46.268c0.676,0.143,1.633,0.504,2.59,0.505c1.32,0.003,2.175-0.84,2.59-2.089
		c0.433-1.302-0.16-2.341-0.967-3.25c-0.884-0.997-1.85-0.378-2.755,0.039c-0.572,0.264-1.114,0.597-1.458,0.785
		C160.934,43.623,160.934,44.796,160.934,46.268z M200.634,42.995c0.23,1.693,0.403,2.956,0.589,4.315
		c1.331,0.513,2.765,1.05,3.942-0.344c0.801-0.947-0.024-4.158-1.236-5.034C202.229,40.705,201.568,42.509,200.634,42.995z
		 M59.643,141.232c0.163,2.01,0.934,3.022,1.996,3.776c0.981,0.694,2.083,0.658,3.074-0.054c0.959-0.691,1.491-1.642,1.211-2.847
		c-0.304-1.318-1.397-1.7-2.533-1.619C62.18,140.574,60.991,140.951,59.643,141.232z M185.343,91.591
		c-0.591,1.752-0.188,3,1.282,3.732c1.232,0.612,3.361,0.219,4.07-0.752c0.842-1.155,0.329-2.43-1.411-3.869
		C187.955,91.001,186.801,91.263,185.343,91.591z M92.361,42.579c0.269-0.683,0.729-1.35,0.744-2.028
		c0.017-0.732-0.173-1.677-0.647-2.165c-0.834-0.858-3.026-0.639-4.124,0.165c-0.832,0.608-1.165,1.437-0.833,2.4
		c0.336,0.977,0.932,2.281,2.236,2.121C91.181,45.639,91.241,42.579,92.361,42.579z M102.409,46.376
		c2.153-1.161,2.934-2.271,2.568-3.638c-0.289-1.075-1.462-1.78-3.055-1.858c-0.975-0.047-1.88,0.08-2.169,1.19
		c-0.274,1.056-1.205,3.588,0.08,4.325C100.528,46.794,101.926,47.011,102.409,46.376z M193.966,31.761
		c-1.634-0.033-2.259,0.6-2.335,2.366c-0.079,1.859,1.18,3.138,3.051,3.098c1.028-0.021,2.063-1.416,2.122-2.856
		C196.873,32.678,195.917,31.8,193.966,31.761z M89.958,80.51c2.639-2.598,2.541-3.991-0.175-5.256
		c-1.119-0.521-2.103-0.627-2.86,0.513c-0.682,1.026-0.056,5.101,0.969,5.716C88.57,81.892,89.122,81.237,89.958,80.51z
		 M185.747,41.058c-1.859,0.714-3.26,1.109-4.515,1.777c-1.225,0.652-1.293,1.59-0.369,2.707c0.336,0.407,0.841,0.676,0.899,0.721
		c1.672-0.461,2.991-0.825,4.538-1.25C187.243,41.595,186.751,40.855,185.747,41.058z M120.277,100.875
		c-1.823-0.092-3.089-0.155-4.371-0.22c-1.117,1.861-1.239,2.927-0.393,3.646c1.122,0.953,3.196,0.552,4.707-0.877
		C121.298,102.403,121.069,101.516,120.277,100.875z M73.432,88.045c-1.141-0.114-2.396-0.667-3.139,0.779
		c-0.576,1.12,0.244,3.802,1.257,4.547c0.829,0.61,1.66,0.403,2.251-0.201c0.348-0.355,2.581-1.788,2.517-2.331
		C76.193,89.782,75.087,89.239,73.432,88.045z M194.933,56.123c0.154,1.042,0.206,1.957,0.439,2.823
		c0.261,0.969,1.827,1.537,3.01,1.206c1.134-0.318,1.312-1.161,1.16-2.149C199.106,55.217,197.91,54.695,194.933,56.123z
		 M154.672,85.172c-1.247,0.256-2.31,0.279-3.161,0.715c-0.632,0.323-1.375,1.195-1.356,1.801c0.018,0.566,1.019,1.6,1.509,1.555
		c1.284-0.117,2.798-0.399,3.708-1.198C156.317,87.213,155.392,86.054,154.672,85.172z M155.299,35.292
		c0.396-0.226,0.849-0.376,1.153-0.677c1.13-1.113,1.274-2.306,0.486-3.44c-0.635-0.917-2.322-1.249-3.486-0.688
		c-1.261,0.608-1.493,1.909-0.479,2.827C153.701,33.973,154.468,34.588,155.299,35.292z M132.351,56.744
		c1.767-1.179,2.383-2.333,1.842-3.575c-0.67-1.541-2.033-1.571-3.375-1.542C129.555,54.374,128.518,57.969,132.351,56.744z
		 M141.665,80.801c-1.65,0.236-2.192,0.908-1.496,2.263c0.405,0.789,1.026,1.523,1.707,2.094c0.505,0.422,1.398,0.886,1.876,0.702
		c0.55-0.212,0.834-1.116,1.044-1.43C143.562,83,142.642,81.933,141.665,80.801z M120.694,90.459
		c1.263,1.013,2.438,0.775,3.417-0.251c0.751-0.788,0.905-1.873,0.155-2.726c-0.403-0.458-1.194-0.787-1.803-0.776
		c-0.366,0.007-0.842,0.728-1.047,1.22C121.081,88.723,120.93,89.596,120.694,90.459z M120.97,56.571
		c-0.73-0.347-1.824-1.314-2.628-0.144c-0.578,0.842-0.76,2.283-0.494,3.292c0.3,1.131,3.292,0.519,3.775,0.219
		C122.11,58.332,122.731,58.338,120.97,56.571z"/>
	<path fill-rule="evenodd" clip-rule="evenodd" d="M50.425,256.291c-0.986,1.153-1.689,2.651-2.167,4.108
		c-0.651,1.989,0.276,3.055,2.359,2.855c1.167-0.112,2.309-0.532,3.447-0.863c0.778-0.227,1.537-0.611,2.232,0.059
		c-0.027,0.296,0.023,0.573-0.069,0.632c-2.791,1.824-5.69,3.541-9.172,3.106c-3.801-0.478-6.231-3.705-4.973-6.92
		c2.566-6.559,6.559-10.55,11.549-15.541c2.22-1.762,4.256-4.165,6.696-5.608c2.82-1.672,5.972-0.994,8.17,1.522
		c2.978,3.41,2.495,5.017,0.868,8.517c-0.138,0.295-0.711,0.387-1.082,0.573c-0.189-0.147-0.379-0.296-0.568-0.445
		c0.255-0.738,0.574-1.464,0.748-2.223c0.202-0.881,0.472-1.815,0.363-2.686c-0.211-1.674-1.428-2.431-2.939-1.698
		C65.888,241.68,63.046,241.624,50.425,256.291z"/>
	<path fill-rule="evenodd" clip-rule="evenodd" d="M233.961,309.915c1.481,0.812,2.351,1.128,3.176-0.336
		c0.695-1.232,1.275-2.762,1.231-4.138c-0.151-4.865-0.467-9.732-0.97-14.575c-0.361-3.469-1.135-6.896-1.682-10.346
		c-0.061-0.385,0.158-0.815,0.247-1.223c0.238-0.065,0.476-0.129,0.714-0.191c0.31,0.604,0.819,1.182,0.897,1.812
		c0.947,7.834,2.827,15.569,2.593,23.526c-0.041,1.37-0.25,2.757-0.564,4.093c-0.668,2.848-2.551,4.442-5.48,4.593
		c-2.907,0.151-5.424-0.8-7.353-3.072c-0.059-0.069-0.108-0.153-0.174-0.214c-4.397-4.748-7.744-24.396-7.744-24.396
		c-0.268-2.339,0.397-3.156,2.215-3.393c1.778-0.229,2.594,0.214,3.02,2.005c0.616,2.595,0.902,5.272,1.626,7.831
		c1.15,4.062,2.304,8.154,3.935,12.031C229.647,303.924,231.938,308.804,233.961,309.915z"/>
	<path fill-rule="evenodd" clip-rule="evenodd" d="M73.553,276.252c-2.794-1.052-5.355-2.009-7.91-2.979
		c-1.166-0.444-2.146-0.198-3.018,0.68c-0.453,0.458-0.945,0.886-1.463,1.266c-1.834,1.35-4.023,0.807-5.106-1.204
		c-0.55-1.021-0.152-1.777,0.588-2.441c1.367-1.229,2.782-2.402,4.136-3.645c3.66-3.359,7.248-6.798,10.964-10.094
		c2.682-2.376,5.517-4.577,8.301-6.836c0.902-0.732,1.882-0.617,2.84-0.076c0.991,0.556,1.066,1.435,0.766,2.394
		c-0.521,1.667-1.023,3.345-1.629,4.983c-2.136,5.781-4.344,11.541-6.456,17.331c-0.598,1.64-1.4,5.282-1.95,6.943
		c-0.141,0.425-0.452,1.647-1.308,1.504c-1.141-0.569-0.449-1.507-0.369-1.972C72.15,280.876,73.093,277.788,73.553,276.252z
		 M79.904,258.606c-0.18-0.137-0.36-0.276-0.54-0.414c-4.428,4.146-8.965,8.181-13.61,12.854c3.032,1.224,5.536,2.231,8.437,3.401
		C76.126,269.078,78.017,263.844,79.904,258.606z"/>
	<path fill-rule="evenodd" clip-rule="evenodd" d="M199.871,288.492c0.911-4.104,4.656-5.315,7.457-5.289
		c1.258,0.014,2.236,0.484,3.035,1.574c1.961,2.674,2.863,5.701,3.422,8.904c0.989,5.676,0.72,11.361,0.082,17.023
		c-0.417,3.698-2.229,5.559-5.329,6.215c-2.614,0.552-4.658-0.446-5.884-2.846c-1.438-2.815-2.401-5.734-2.571-8.941
		C198.256,293.963,199.871,288.492,199.871,288.492z M209.676,314.579c2.114-1.238,2.585-2.854,2.706-4.493
		c0.192-2.649,0.072-5.32,0.236-7.972c0.27-4.376-0.421-8.618-1.699-12.765c-0.342-1.11-1.003-2.185-1.742-3.095
		c-1.062-1.309-2.528-1.291-3.45,0.102c-0.63,0.951-1.186,2.179-1.178,3.28c0.025,4.216-0.01,8.474,0.566,12.633
		C205.115,302.27,206.607,315.71,209.676,314.579z"/>
	<path fill-rule="evenodd" clip-rule="evenodd" d="M252,294.089c0.542,4.834,4.09,8.764,4.517,13.518
		c-2.44,2.164-4.07,1.889-5.081-1.104c-1.824-5.403-3.498-10.858-5.287-16.275c-1.152-3.491-2.4-6.951-3.599-10.43
		c-0.811-2.353-0.674-2.614,1.694-3.299c3.144-0.912,6.263-0.84,9.048,0.946c3.456,2.218,4.588,7.193,2.805,11.41
		c-0.462,1.095-1.042,2.14-1.632,3.343c3.36,4.931,7.883,8.802,12.45,13.03c-1.854,0.778-2.703-0.141-3.512-0.924
		c-3.038-2.946-6.03-5.935-9.045-8.904C253.741,294.794,253.321,293.842,252,294.089z M247.068,278.219
		c1.371,4.557,2.675,8.893,3.979,13.229c2.894-0.892,4.529-4.798,3.819-8.359C254.131,279.395,251.604,277.664,247.068,278.219z"/>
	<path fill-rule="evenodd" clip-rule="evenodd" d="M268.951,295.013c0.82-0.935,1.379-0.395,1.979,0.068
		c1.02,0.783,1.969,1.771,3.121,2.242c1.21,0.491,2.66,0.759,3.944,0.611c1.62-0.19,2.135-1.309,1.625-2.841
		c-0.258-0.775-0.628-1.565-1.137-2.194c-2.559-3.158-5.298-6.129-8.897-8.165c-1.36-0.771-2.766-1.52-3.965-2.504
		c-2.335-1.912-4.085-4.406-4.53-7.363c-0.727-4.805,2.82-7.062,7.592-6.17c1.123,0.21,2.157,0.996,3.166,1.624
		c0.272,0.169,0.299,0.732,0.431,1.088c-1.233,0.868-1.848-0.146-2.581-0.549c-1.067-0.586-2.9-1.345-3.915-0.039
		c-1.156,1.489-1.096,2.87,0.29,4.389c2.441,2.678,5.261,4.869,8.426,6.61c2.936,1.613,5.461,3.703,7.693,6.194
		c3.313,3.696,2.328,10.474-4.392,12.235c-0.809,0.212-1.813-0.106-2.678-0.354c-2.377-0.685-4.145-2.328-5.877-3.98
		C269.028,295.707,269.03,295.27,268.951,295.013z"/>
	<path fill-rule="evenodd" clip-rule="evenodd" d="M150.412,285.35c0.145,0.309,0.639,0.553,1.008,0.608
		c0.161,0.024,0.531-0.473,0.59-0.775c0.253-1.285-1.7-5.371-3.293-6.061c-3.396-1.469-7.473-0.079-8.711,3.4
		c-1.009,2.841-1.043,5.701,0.045,8.639c1.438,3.877,2.676,7.836,3.822,11.812c0.398,1.381,0.444,2.929,0.336,4.374
		c-0.216,2.858-2.505,3.915-4.963,2.415c-1.547-0.946-2.178-2.424-2.376-4.151c-0.088-0.76-0.21-1.516-0.349-2.496
		c-1.955,0.854-1.684,2.179-1.419,3.391c0.596,2.723,2.343,4.454,4.845,5.61c2.816,1.3,6.328,0.484,8.129-2.032
		c1.846-2.578,2.414-5.291,1.164-8.338c-1.223-2.978-2.369-5.994-3.415-9.039c-0.846-2.459-1.276-5.012-0.716-7.617
		c0.42-1.955,1.424-3.35,3.705-3.541C148.813,281.548,149.812,281.915,150.412,285.35z"/>
	<path fill-rule="evenodd" clip-rule="evenodd" d="M301.973,263.916c0.715-0.563,1.226-0.908,1.669-1.325
		c2.923-2.741,6.515-2.502,8.721,0.775c3.008,4.467,3.924,9.253,1.702,14.391c-0.693,1.602-1.157,3.311-1.93,4.867
		c-0.907,1.829-1.969,2.337-3.809,1.935c-0.62-0.137-1.459-0.639-1.617-1.152c-0.162-0.527,0.207-1.649,0.65-1.858
		c1.703-0.797,1.966-2.334,2.341-3.838c0.714-2.867,1.237-5.758,0.768-8.73c-0.41-2.595-1.553-4.688-4.269-6.084
		c-1.152,1.185-2.365,2.393-3.536,3.64c-2.214,2.356-4.313,3.324-5.248-1.426c-0.424-2.16-0.621-4.362-0.926-6.546
		c-0.15-1.063-0.312-2.123-0.554-3.759c-1.729,1.16-3.021,2.108-4.401,2.908c-0.437,0.255-1.103,0.112-1.664,0.153
		c0.225-0.519,0.313-1.203,0.7-1.525c1.772-1.464,3.606-2.858,5.462-4.219c1.643-1.2,2.503-1.079,3.622,0.685
		c0.569,0.896,0.955,1.987,1.129,3.036c0.347,2.087,0.474,4.208,0.727,6.31C301.571,262.661,301.768,263.152,301.973,263.916z"/>
	<path fill-rule="evenodd" clip-rule="evenodd" d="M92.754,260.18c0.488-0.111,1.017-0.303,1.555-0.341
		c2.165-0.153,2.936,0.624,2.594,2.731c-0.19,1.174-0.573,2.321-0.921,3.463c-1.954,6.417-3.941,12.825-5.87,19.249
		c-0.339,1.129-0.459,2.324-0.479,3.614c6.145-7.455,12.065-15.057,18.636-22.091c1.148,0.71,0.848,1.331,0.308,1.939
		c-3.042,3.408-6.192,6.728-9.109,10.242c-2.46,2.963-4.619,6.178-6.987,9.224c-1.008,1.294-2.105,2.566-3.354,3.622
		c-1.328,1.121-2.669,1.006-4.071,0.103c-1.286-0.827-1.113-1.937-0.759-3.167c1.527-5.297,2.986-10.613,4.542-15.902
		C90.056,268.729,91.379,264.621,92.754,260.18z"/>
	<path fill-rule="evenodd" clip-rule="evenodd" d="M164.464,286.046c-1.696-1.212-3.929,0.124-5.2-1.615
		c0.458-1.18,1.328-0.957,2.136-0.946c1.733,0.025,3.468-0.013,5.2,0.041c2.2,0.067,4.398,0.176,6.591,0.341
		c0.383,0.026,2.369,0.397,2.77,0.639c-0.605,1.762-3.849,0.635-4.941,1.527c-0.135,0.453-0.455,1.126-0.53,1.828
		c-0.865,8.13-1.691,16.264-2.534,24.395c-0.086,0.819-0.111,1.672-0.357,2.446c-0.451,1.412-1.49,2.097-2.628,1.914
		c-1.317-0.207-2.307-1.229-2.488-2.576c-0.024-0.183-0.023-0.369-0.011-0.553c0.171-2.646,0.327-5.292,0.525-7.935
		c0.159-2.108,0.357-4.212,0.56-6.316c0.292-3.011,0.649-6.018,0.889-9.031C164.559,288.769,164.464,287.318,164.464,286.046z"/>
	<path fill-rule="evenodd" clip-rule="evenodd" d="M315.783,237.193c1.115,1.86,1.077,2.201-0.363,3.5
		c-0.939,0.845-1.96,1.602-3.075,2.502c2.429,4.237,5.031,8.06,8.507,11.278c1.588-1.185,3.013-2.329,4.52-3.352
		c2.018-1.37,2.807-1.317,4.748,0.029c1.865,1.299,3.406,3.663,4.102,5.979c1.058,3.53,0.973,4.149,1.282,5.846
		c0.317,1.726,0.496,4.272-1.256,5.448c-1.76,1.183-3.656,1.181-5.419-0.067c-0.866-0.612-1.703-1.315-2.384-2.119
		c-0.257-0.304-0.042-1.007-0.042-1.803c1.43,0.939,2.667,1.751,4.235,2.78c0.213-1.105,0.419-1.784,0.462-2.472
		c0.198-3.221-0.632-6.224-2.254-8.971c-1.714-2.901-3.337-3.031-5.604-0.547c-0.612,0.669-1.036,1.507-1.583,2.243
		c-1.064,1.433-1.796,1.52-3.174,0.374c-0.492-0.41-0.985-0.846-1.376-1.348c-2.71-3.478-5.403-6.969-8.082-10.471
		c-1.103-1.442-1.118-1.825,0.175-3.021C311.282,241.083,313.444,239.25,315.783,237.193z"/>
	<path fill-rule="evenodd" clip-rule="evenodd" d="M123.19,273.4c-1.124-0.336-2.034-0.57-2.917-0.881
		c-1.121-0.392-1.958-0.225-2.5,0.942c-0.54,1.166-1.233,2.268-1.721,3.453c-0.909,2.209-1.689,4.473-2.577,6.694
		c-1.142,2.854-1.084,3.09,1.526,4.544c0.32,0.179,0.758,0.234,0.97,0.491c0.254,0.31,0.529,0.85,0.416,1.143
		c-0.106,0.274-0.754,0.559-1.085,0.484c-0.973-0.221-1.905-0.617-3.076-1.022c-1.829,3.452-2.953,7.081-4.066,10.956
		c1.523,0.792,2.883,1.502,4.327,2.255c-0.359,1.314-1.169,1.504-2.288,1.155c-1.569-0.491-3.15-0.939-4.715-1.436
		c-1.766-0.559-2.35-1.169-2.064-3.031c0.288-1.886,0.897-3.749,1.574-5.541c2.795-7.397,5.672-14.761,8.512-22.14
		c0.651-1.689,1.377-2.221,3.141-1.873c1.709,0.335,3.396,0.83,5.061,1.353C122.674,271.25,123.636,271.817,123.19,273.4z"/>
	<path fill-rule="evenodd" clip-rule="evenodd" d="M178.775,177.094c-0.046-3.575-0.172-7.045-0.097-10.51
		c0.033-1.491,1.091-2.353,2.515-2.375c2.386-0.036,4.774,0.025,7.162,0.001c1.341-0.013,2.137,0.586,2.189,1.921
		c0.118,3.016,0.176,6.033,0.235,9.051c0.02,0.967-0.137,1.99-1.335,2.06C185.989,177.441,182.52,177.804,178.775,177.094z"/>
	<path fill-rule="evenodd" clip-rule="evenodd" d="M122.248,178.304c0.135,0.577,0.377,1.223,0.367,1.797
		c-0.104,6.162-0.256,12.255-0.36,18.416c-0.048,2.853-0.038,5.708,0.025,8.561c0.13,5.886,0.305,11.771,0.488,17.656
		c0.034,1.084,0.192,2.165,0.318,3.512c5.931-0.297,10.531-0.61,16.083-0.916c-0.383,0.464,0.134,0.905-0.047,0.924
		c-5.728,0.506-11.458,0.979-17.384,1.475c-1.026-17.151-0.653-34.233-0.212-51.314C121.764,178.377,122.006,178.34,122.248,178.304
		z"/>
	<path fill-rule="evenodd" clip-rule="evenodd" d="M224.679,165.931c1.635,0,3.271-0.012,4.906,0.003
		c1.124,0.01,1.637,0.621,1.713,1.727c0.153,2.202,0.396,4.399,0.522,6.603c0.122,2.101-0.329,2.545-2.503,2.722
		c-4.042,0.329-4.135,0.166-4.596-3.826C224.459,170.885,224.567,168.665,224.679,165.931z"/>
	<path fill-rule="evenodd" clip-rule="evenodd" d="M143.167,143.657c2.532-0.845,4.949-0.684,7.019-0.371
		c0.843,0.127,0.926,0.934,0.923,1.821c-0.006,1.649,0.019,3.299,0.048,4.948c0.018,1.036-0.521,1.524-1.504,1.543
		c-1.558,0.031-3.117,0.045-4.675,0.028c-1.197-0.013-1.855-0.554-1.823-1.86C143.204,147.765,143.167,145.761,143.167,143.657z"/>
	<path fill-rule="evenodd" clip-rule="evenodd" d="M217.081,144.466c1.28-0.107,2.427-0.201,3.761-0.312
		c0.924,2.76,0.529,5.391,0.137,7.944c-0.075,0.491-1.597,0.96-2.488,1.043c-0.472,0.044-1.425-0.721-1.473-1.192
		C216.766,149.528,216.48,147.076,217.081,144.466z"/>
	<path fill-rule="evenodd" clip-rule="evenodd" d="M215.368,202.633c-0.217-1.965-0.491-3.58-0.547-5.202
		c-0.064-1.852,0.517-2.387,2.419-2.596c0.364-0.041,0.733-0.065,1.097-0.048c0.265,0.015,0.525,0.108,0.864,0.186
		c0.251,1.979,0.511,3.571,0.562,5.389c0.04,1.34-0.156,1.992-1.54,2.059C217.416,202.46,216.612,202.537,215.368,202.633z"/>
	<path fill-rule="evenodd" clip-rule="evenodd" d="M180.777,301.335c2.583,0.145,5.163,0.288,7.659,0.428
		c0.446,1.125,0.232,1.841-0.707,1.791c-2.166-0.113-4.326-0.383-6.477-0.676c-0.29-0.041-0.511-0.583-0.763-0.894
		C180.586,301.768,180.682,301.552,180.777,301.335z"/>
	<path fill-rule="evenodd" clip-rule="evenodd" d="M272.236,141.516c-2.013,0-3.546,0-5.231,0
		c-0.182-3.099-0.944-7.625-0.896-10.627c0.007-0.458,0.766-0.11,1.251-0.268c1.287-0.417,2.558-0.062,4.253-0.414
		C272.252,133.962,272.364,137.609,272.236,141.516z"/>
</g>
<path fill-rule="evenodd" clip-rule="evenodd" d="M161.272,356.451c-0.35-1.428,3.103-0.339,4.045-1.252
	c0.685-0.662,0.616-2.86,1.049-4.185c-0.734,0-1.146,0.016-1.558-0.003c-3.091-0.137-4.105-1.257-3.835-4.34
	c0.153-1.735,0.402-3.459,0.637-5.185c0.017-0.125,0.262-0.219,0.696-0.557c0.813,0.557,0.615,1.065,0.604,1.545
	c-0.022,1.005-0.316,2.002-0.374,3.007c-0.05,0.905-0.062,1.85,0.138,2.723c0.267,1.179,1.277,1.506,2.358,1.469
	c1.084-0.036,1.291-0.842,1.34-1.738c0.075-1.378,0.135-2.76,0.269-4.132c0.083-0.868,0.013-1.862,1.148-2.353
	c0.175,0.227,0.469,0.432,0.458,0.621c-0.15,2.926-0.307,5.852-0.538,8.773c-0.079,0.998-0.265,2.014-0.58,2.962
	C166.151,356.744,164.831,357.373,161.272,356.451z"/>
<path fill-rule="evenodd" clip-rule="evenodd" d="M197.172,334.231c1.112,0.134,0.759,1.038,0.729,1.239
	c-0.776,5.362-1.574,10.721-2.408,16.078c-0.046,0.295-0.423,0.537-0.647,0.81c-1.202-0.28-1.468-1.13-1.639-2.054
	c-0.417-2.255-0.785-4.522-1.264-6.764c-0.538-2.512-1.187-4.996-1.762-7.498c-0.055-0.236-0.426-0.886,0.151-1.115
	c0.918-0.122,1.059,0.678,1.163,1.038c0.583,2.027,1.113,4.073,1.561,6.133c0.421,1.942,0.891,4.913,1.447,6.859
	c0.615-2.462,1.119-5.388,1.418-7.626C196.218,339.133,196.438,337.002,197.172,334.231z"/>
<path fill-rule="evenodd" clip-rule="evenodd" d="M207.355,343.836c-0.545-3.493-3.798-0.328-3.691-1.845
	c1.709-1.68,3.636-1.489,4.651,0.461c0.541,1.039,0.814,2.242,1.062,3.402c0.403,1.874,0.702,3.772,0.998,5.669
	c0.051,0.326-0.131,0.689-0.219,1.095c-0.708,0.298-0.62-1.286-3.085-0.274c-2.382,0.975-3.621,0.483-4.387-0.863
	c-0.911-1.608-0.512-4.698,0.993-5.829C204.72,344.87,206.045,344.465,207.355,343.836z M208.359,348.604
	c0.025-2.067-0.409-2.75-1.741-2.741c-1.517,0.012-2.849,1.419-2.886,3.052c-0.036,1.484,0.688,2.3,2.05,2.313
	C207.621,351.246,208.337,350.517,208.359,348.604z"/>
<path fill-rule="evenodd" clip-rule="evenodd" d="M236.686,343.897c0.321,0.619,0.499,1.43,1.003,1.803
	c0.587,0.438,0.945,1.501,2.353,0.972c0.618-0.198,1.582-0.878,1.191-2.104c-0.169-0.531-0.897-1.274-1.555-1.583
	c-1.149-0.535-2.479-0.689-3.626-1.229c-1.361-0.642-1.826-1.825-1.554-3.199c0.262-1.324,1.214-2.171,2.673-2.38
	c1.823-0.262,4.276,1.531,3.54,2.228c-0.823-0.393-1.298-0.667-1.808-0.854c-1.305-0.476-2.4-0.059-2.691,1.041
	c-0.323,1.216,0.246,1.923,1.407,2.235c1.063,0.287,2.155,0.498,3.174,0.899c1.497,0.588,2.356,1.981,2.12,3.169
	c-0.327,1.643-1.771,2.924-3.463,3.075c-1.542,0.138-2.948-1.234-3.277-2.527c-0.162-0.636-0.104-0.872,0.019-1.582
	C236.357,343.872,236.521,343.886,236.686,343.897z"/>
<path fill-rule="evenodd" clip-rule="evenodd" d="M145.626,348.606c-1.757,0.196-0.44-0.878-3.256-0.807
	c-2.85-0.871-3.488-1.8-3.058-4.786c0.299-2.074,0.755-4.1,1.765-5.986c1.293,0.573,0.678,1.421,0.532,2.169
	c-0.299,1.522-0.7,3.031-0.887,4.569c-0.163,1.35,0.582,2.109,2.039,2.404c1.293,0.261,1.908-0.108,2.277-1.715
	c0.349-1.514,0.462-3.081,0.726-4.617c0.094-0.557,0.322-1.09,0.58-1.928C148.087,338.146,146.674,344.664,145.626,348.606z"/>
<path fill-rule="evenodd" clip-rule="evenodd" d="M128.841,344.643c-1.237-0.43-0.568-2.221-0.292-3.165
	c1.051-3.61,2.093-7.224,3.155-10.83c0.687-2.33,0.882-2.414,3.282-1.578c0.865,0.302,1.734,0.595,2.589,0.923
	c0.142,0.055,0.221,0.275,0.393,0.505c-1.379,1.809-2.843-0.685-4.598,0.327c-0.413,1.248-0.946,2.854-1.515,4.572
	c1.291,0.689,2.416,0.947,3.485,1.518c-0.033,0.145-0.123,0.604-0.157,0.748c-0.391,0.054-0.796,0.205-1.171,0.149
	c-2.537-0.389-2.586-0.417-3.346,1.857c-0.375,1.119-0.458,2.336-0.793,3.473C129.729,343.631,129.363,344.739,128.841,344.643z"/>
<path fill-rule="evenodd" clip-rule="evenodd" d="M212.752,333.452c1.539,5.791,2.751,11.525,2.67,17.659
	c-0.371-0.395-0.991,0.481-1.051,0.045c-0.708-5.105-1.85-12.025-2.46-17.143C211.868,333.655,212.628,333.831,212.752,333.452z"/>
<path fill-rule="evenodd" clip-rule="evenodd" d="M154.102,332.716c-0.943,5.462-1.441,10.895-2.441,16.825
	c-1.727,0.119-0.558-7.86,1-15.305C152.792,333.604,152.653,332.698,154.102,332.716z"/>
<path fill-rule="evenodd" clip-rule="evenodd" d="M158.747,333.078c0.048,0.563,0.204,1.14,0.127,1.685
	c-0.417,3.003-0.94,5.992-1.324,8.997c-0.208,1.626-0.243,3.279-0.296,4.921c-0.025,0.786-0.2,1.262-1.106,1.022
	C155.749,348.041,156.878,333.31,158.747,333.078z"/>
<path fill-rule="evenodd" clip-rule="evenodd" d="M231.01,348.441c-0.727-3.438-1.639-6.119-2.222-9.505
	c0.206-0.049,0.707-0.229,0.912-0.279c0.779,2.933,1.572,5.861,2.315,8.804c0.067,0.268-0.188,0.616-0.292,0.927
	C231.486,348.406,231.248,348.424,231.01,348.441z"/>
<path fill-rule="evenodd" clip-rule="evenodd" d="M184.016,344.552c-0.061,0.891-2.838,0.703-4.11-0.283
	C179.823,343.243,182.386,343.286,184.016,344.552z"/>
<path fill-rule="evenodd" clip-rule="evenodd" d="M229.053,335.421c-0.518,0.595-0.458,0.565-0.703,0.522
	c-0.278-0.05-0.508-0.379-0.758-0.583c0.206-0.243,0.451-0.71,0.61-0.683C228.555,334.738,229.062,334.521,229.053,335.421z"/>
<path fill-rule="evenodd" clip-rule="evenodd" d="M223.026,341.96c-0.887-3.422-3.812,0.047-3.855-1.471
	c1.535-1.843,3.471-1.841,4.674,0.002c0.64,0.98,1.03,2.151,1.393,3.279c0.583,1.827,1.068,3.686,1.55,5.544
	c0.082,0.319-0.063,0.7-0.11,1.109c-0.675,0.365-0.744-1.219-3.098,0.03c-2.274,1.207-3.556,0.838-4.449-0.427
	c-1.066-1.509-0.972-4.626,0.414-5.898C220.505,343.251,221.783,342.714,223.026,341.96z M224.494,346.606
	c-0.18-2.059-0.678-2.696-2.003-2.554c-1.508,0.16-2.696,1.69-2.572,3.319c0.111,1.479,0.911,2.222,2.268,2.102
	C224.019,349.31,224.659,348.515,224.494,346.606z"/>
<rect x="184.021" y="143.526" fill-rule="evenodd" clip-rule="evenodd" width="5.914" height="10.216"/>
<polygon fill-rule="evenodd" clip-rule="evenodd" fill="#FFFFFF" points="231.747,212.315 234.846,211.662 234.932,212.457 
	231.72,212.883 "/>
<polygon fill-rule="evenodd" clip-rule="evenodd" fill="#FFFFFF" points="239.336,210.867 239.308,211.718 243.77,211.15 
	243.544,210.185 "/>
<polygon fill-rule="evenodd" clip-rule="evenodd" fill="#FFFFFF" points="244.339,210.211 244.48,211.121 249.171,210.439 
	249.113,209.587 "/>
<polygon fill-rule="evenodd" clip-rule="evenodd" fill="#FFFFFF" points="249.625,209.473 249.852,210.412 253.463,209.983 
	253.235,208.961 "/>
<path fill-rule="evenodd" clip-rule="evenodd" fill="#FFFFFF" d="M253.889,208.82l0.199,1.051l3.269-0.343
	c0,0,0.283-0.767-0.199-0.851C256.674,208.592,253.889,208.82,253.889,208.82z"/>
<ellipse fill-rule="evenodd" clip-rule="evenodd" cx="90.845" cy="43.072" rx="1.847" ry="1.601"/>
<ellipse fill-rule="evenodd" clip-rule="evenodd" cx="100.51" cy="46.581" rx="1.786" ry="1.416"/>
<ellipse fill-rule="evenodd" clip-rule="evenodd" cx="96.016" cy="62.893" rx="1.724" ry="1.97"/>
<ellipse fill-rule="evenodd" clip-rule="evenodd" cx="88.075" cy="80.867" rx="1.786" ry="1.478"/>
<ellipse fill-rule="evenodd" clip-rule="evenodd" cx="75.764" cy="90.777" rx="2.154" ry="1.293"/>
<ellipse fill-rule="evenodd" clip-rule="evenodd" cx="121.562" cy="88.993" rx="1.292" ry="1.97"/>
<ellipse fill-rule="evenodd" clip-rule="evenodd" cx="117.991" cy="100.627" rx="2.893" ry="1.539"/>
<ellipse fill-rule="evenodd" clip-rule="evenodd" cx="130.918" cy="56.245" rx="1.539" ry="1.724"/>
<ellipse fill-rule="evenodd" clip-rule="evenodd" cx="122.178" cy="59.2" rx="1.539" ry="1.23"/>
<ellipse fill-rule="evenodd" clip-rule="evenodd" cx="143.599" cy="38.393" rx="2.032" ry="2.216"/>
<ellipse fill-rule="evenodd" clip-rule="evenodd" cx="153.694" cy="34.515" rx="2.032" ry="2.154"/>
<ellipse fill-rule="evenodd" clip-rule="evenodd" cx="161.143" cy="44.549" rx="1.231" ry="2.462"/>
<ellipse fill-rule="evenodd" clip-rule="evenodd" cx="153.51" cy="61.846" rx="1.724" ry="2.278"/>
<ellipse fill-rule="evenodd" clip-rule="evenodd" cx="144.03" cy="82.776" rx="1.724" ry="2.277"/>
<ellipse fill-rule="evenodd" clip-rule="evenodd" cx="152.894" cy="85.546" rx="2.093" ry="1.724"/>
<ellipse fill-rule="evenodd" clip-rule="evenodd" cx="179.733" cy="80.622" rx="2.339" ry="2.461"/>
<ellipse fill-rule="evenodd" clip-rule="evenodd" cx="193.707" cy="84.191" rx="1.908" ry="2.339"/>
<ellipse fill-rule="evenodd" clip-rule="evenodd" cx="187.367" cy="90.901" rx="2.093" ry="1.909"/>
<ellipse fill-rule="evenodd" clip-rule="evenodd" cx="174.87" cy="88.993" rx="2.401" ry="2.339"/>
<ellipse fill-rule="evenodd" clip-rule="evenodd" cx="200.847" cy="45.226" rx="1.292" ry="2.647"/>
<ellipse fill-rule="evenodd" clip-rule="evenodd" cx="195.307" cy="57.783" rx="1.293" ry="2.278"/>
<ellipse fill-rule="evenodd" clip-rule="evenodd" cx="183.919" cy="45.718" rx="3.201" ry="1.292"/>
<ellipse fill-rule="evenodd" clip-rule="evenodd" cx="193.46" cy="36.855" rx="1.909" ry="1.785"/>
<path fill-rule="evenodd" clip-rule="evenodd" fill="#FFFFFF" d="M154.126,112.877c0,0,3.571,0.862,4.555-1.354
	c2.092,0.985,2.463,3.201,0.616,3.817C157.45,115.955,153.879,116.817,154.126,112.877z"/>
<path fill-rule="evenodd" clip-rule="evenodd" fill="#FFFFFF" d="M145.877,106.599c0,0,3.694,2.339,6.156-0.124
	c0.123,3.693-2.217,5.171-4.063,4.678C146.124,110.661,145.877,106.599,145.877,106.599z"/>
<path fill-rule="evenodd" clip-rule="evenodd" fill="#FFFFFF" d="M153.142,107.953c0,0,2.339,1.354,4.431,0
	c0.123,2.709-0.738,4.187-2.339,4.309C153.634,112.385,152.649,110.169,153.142,107.953z"/>
<path fill-rule="evenodd" clip-rule="evenodd" fill="#FFFFFF" d="M159.915,107.706c0,0,1.23,2.462,5.787-0.492
	c0,3.816-2.708,4.679-3.94,4.801C160.53,112.139,159.422,109.184,159.915,107.706z"/>
<path fill-rule="evenodd" clip-rule="evenodd" fill="#FFFFFF" d="M167.301,107.83c0,0,3.448,1.97,5.664,0.246
	c0,4.186-2.462,5.047-3.448,5.047S166.685,109.43,167.301,107.83z"/>
<path fill-rule="evenodd" clip-rule="evenodd" fill="#FFFFFF" d="M174.441,106.968c0,0,2.955,2.585,4.063,1.847
	c0.123,4.187-3.324,5.786-3.939,4.432C172.965,111.399,174.441,106.968,174.441,106.968z"/>
<path fill-rule="evenodd" clip-rule="evenodd" fill="#FFFFFF" d="M148.958,129.005c0,0,4.433,1.847,7.264-0.246
	c-0.124,3.57-3.325,5.293-4.556,5.17C150.436,133.807,148.588,130.852,148.958,129.005z"/>
<path fill-rule="evenodd" clip-rule="evenodd" fill="#FFFFFF" d="M158.067,128.882c0,0,3.94,2.093,6.033-0.985
	c0.245,4.432-3.447,5.663-3.447,5.663S158.806,134.299,158.067,128.882z"/>
<path fill-rule="evenodd" clip-rule="evenodd" fill="#FFFFFF" d="M163.854,119.402c0,0,2.708,1.847,5.786,0.123
	c1.97,3.201-2.092,6.524-3.201,6.278C165.332,125.558,162.746,123.835,163.854,119.402z"/>
<path fill-rule="evenodd" clip-rule="evenodd" fill="#FFFFFF" d="M165.701,126.912c0,0,4.063,0.369,5.417-1.354
	C171.61,129.128,165.578,131.221,165.701,126.912z"/>
<path fill-rule="evenodd" clip-rule="evenodd" fill="#FFFFFF" d="M172.226,113.862c0,0,3.324,1.723,6.032-0.246
	c0.738,2.461-2.832,5.047-4.801,4.801S171.242,115.955,172.226,113.862z"/>
<path fill-rule="evenodd" clip-rule="evenodd" fill="#FFFFFF" d="M179.858,113.739c0,0,2.955,0.861,4.063,0l1.846,0.985
	c0,0,0.247,4.062-3.692,4.186C178.135,119.033,179.858,113.739,179.858,113.739z"/>
<path fill-rule="evenodd" clip-rule="evenodd" fill="#FFFFFF" d="M197.341,119.525c0,0,3.447,1.478,6.156-0.985
	c0.738,4.679-0.861,6.156-3.324,6.279s-3.324-0.246-3.324-0.246L197.341,119.525z"/>
<path fill-rule="evenodd" clip-rule="evenodd" fill="#FFFFFF" d="M205.097,119.771c0,0,5.171,0.984,5.909,0.123
	c1.108,1.724,0.986,4.801-3.815,5.293C204.235,125.927,205.097,119.771,205.097,119.771z"/>
<path fill-rule="evenodd" clip-rule="evenodd" fill="#FFFFFF" d="M218.023,132.699c0,0,2.956-0.862,3.571-3.448
	c3.077,3.324,4.923,3.94,4.923,3.94S219.254,135.53,218.023,132.699z"/>
<path fill-rule="evenodd" clip-rule="evenodd" fill="#FFFFFF" d="M231.936,111.031c0,0,4.557,1.846,6.772-0.862
	c-1.355,6.156-4.926,5.048-4.926,5.048L231.936,111.031z"/>
<path fill-rule="evenodd" clip-rule="evenodd" fill="#FFFFFF" d="M240.553,110.292c0,0,4.311,1.107,5.91,0.246
	c1.602-0.862-0.984,5.047-3.693,4.432C240.061,114.354,240.553,110.292,240.553,110.292z"/>
<path fill-rule="evenodd" clip-rule="evenodd" fill="#FFFFFF" d="M252.742,118.171c0,0,3.447,3.078,6.278-0.246
	c-0.124,5.048-3.078,6.895-4.309,6.402C253.481,123.834,252.496,123.588,252.742,118.171z"/>
<path fill-rule="evenodd" clip-rule="evenodd" fill="#FFFFFF" d="M239.814,106.475l3.324-0.123c0,0,1.232,2.955-1.723,3.078
	C238.461,109.553,239.814,106.475,239.814,106.475z"/>
<path fill-rule="evenodd" clip-rule="evenodd" fill="#FFFFFF" d="M244.739,106.352l4.187-0.369c0,0,0.984,2.585-1.971,3.201
	C244,109.799,244.739,106.352,244.739,106.352z"/>
</svg>
